<svg xmlns="http://www.w3.org/2000/svg" xmlns:xlink="http://www.w3.org/1999/xlink" width="512" zoomAndPan="magnify" viewBox="0 0 384 383.999986" height="512" preserveAspectRatio="xMidYMid meet" version="1.0"><defs><clipPath id="002380d426"><path d="M 175 118.691406 L 181 118.691406 L 181 260 L 175 260 Z M 175 118.691406 " clip-rule="nonzero"/></clipPath><clipPath id="d24a166559"><path d="M 180 126 L 268.949219 126 L 268.949219 238 L 180 238 Z M 180 126 " clip-rule="nonzero"/></clipPath><clipPath id="66d86acd21"><path d="M 127.867188 240 L 261 240 L 261 264.941406 L 127.867188 264.941406 Z M 127.867188 240 " clip-rule="nonzero"/></clipPath><clipPath id="03fb27da42"><path d="M 180 126 L 268.949219 126 L 268.949219 238 L 180 238 Z M 180 126 " clip-rule="nonzero"/></clipPath><clipPath id="8d5bce1ef1"><path d="M 202 173 L 268.949219 173 L 268.949219 238 L 202 238 Z M 202 173 " clip-rule="nonzero"/></clipPath><clipPath id="72586aa13d"><path d="M 153 118.691406 L 188 118.691406 L 188 163 L 153 163 Z M 153 118.691406 " clip-rule="nonzero"/></clipPath><clipPath id="c6921e3d81"><path d="M 168 118.691406 L 201 118.691406 L 201 172 L 168 172 Z M 168 118.691406 " clip-rule="nonzero"/></clipPath><clipPath id="902a48cf22"><path d="M 247.15625 197.378906 L 268.820312 197.378906 L 268.820312 250 L 247.15625 250 Z M 247.15625 197.378906 " clip-rule="nonzero"/></clipPath><clipPath id="7643defd7f"><path d="M 244.1875 190.609375 L 268.820312 190.609375 L 268.820312 219.378906 L 244.1875 219.378906 Z M 244.1875 190.609375 " clip-rule="nonzero"/></clipPath><clipPath id="2d3b9a2b09"><path d="M 140.601562 248 L 260.742188 248 L 260.742188 264.941406 L 140.601562 264.941406 Z M 140.601562 248 " clip-rule="nonzero"/></clipPath></defs><g clip-path="url(#002380d426)"><path stroke-linecap="round" transform="matrix(0.0424526, 0, 0, -0.0423055, 127.865416, 264.957812)" fill="none" stroke-linejoin="miter" d="M 1187.487044 194.474716 L 1187.487044 3397.463028 " stroke="#293982" stroke-width="120" stroke-opacity="1" stroke-miterlimit="10"/></g><path fill="#f68395" d="M 175.679688 234.855469 C 175.679688 234.855469 146.28125 187.132812 175.730469 126.851562 C 175.730469 126.851562 115.363281 177.074219 132.96875 237.878906 C 132.96875 237.878906 147.753906 225.785156 175.679688 234.855469 " fill-opacity="1" fill-rule="nonzero"/><g clip-path="url(#d24a166559)"><path fill="#f8a30e" d="M 180.824219 126.851562 C 180.824219 126.851562 201.300781 174.003906 180.824219 234.929688 C 180.824219 234.929688 221.675781 222.714844 268.398438 237.878906 C 268.398438 237.878906 250.710938 150.398438 180.824219 126.851562 " fill-opacity="1" fill-rule="nonzero"/></g><g clip-path="url(#66d86acd21)"><path fill="#f68395" d="M 129.527344 246.640625 C 141.996094 244.339844 202.863281 234.222656 259.085938 244.832031 C 260.578125 245.113281 261.25 246.855469 260.328125 248.054688 C 256.242188 253.359375 246.78125 264.957031 242.167969 264.957031 L 140.652344 264.957031 C 140.207031 264.957031 139.773438 264.8125 139.421875 264.542969 C 137.515625 263.09375 131.316406 257.902344 128 249.351562 C 127.546875 248.171875 128.28125 246.871094 129.527344 246.640625 " fill-opacity="1" fill-rule="nonzero"/></g><g clip-path="url(#03fb27da42)"><path fill="#f8a30e" d="M 268.398438 237.878906 C 268.398438 237.878906 250.710938 150.398438 180.824219 126.851562 C 213.253906 174.808594 209.136719 218.644531 207.175781 230.710938 C 223.21875 229.5625 245.078125 230.308594 268.398438 237.878906 " fill-opacity="1" fill-rule="nonzero"/></g><path fill="#e97d16" d="M 180.824219 126.851562 C 180.824219 126.851562 201.300781 174.003906 180.824219 234.929688 C 180.824219 234.929688 191.074219 231.867188 207.175781 230.710938 C 209.136719 218.644531 213.253906 174.808594 180.824219 126.851562 " fill-opacity="1" fill-rule="nonzero"/><g clip-path="url(#8d5bce1ef1)"><path fill="#e97d16" d="M 268.398438 237.878906 C 268.398438 237.878906 241.152344 199.503906 202.882812 173.722656 C 202.882812 173.722656 233.964844 186.664062 261.25 214.398438 C 261.25 214.398438 265.78125 225.925781 268.398438 237.878906 " fill-opacity="1" fill-rule="nonzero"/></g><path fill="#e97d16" d="M 175.730469 126.851562 C 175.730469 126.851562 115.363281 177.074219 132.96875 237.878906 C 132.96875 237.878906 141.378906 231.003906 157.484375 231.511719 C 153.902344 214.484375 145.730469 160.875 175.730469 126.851562 " fill-opacity="1" fill-rule="nonzero"/><path fill="#f8a30e" d="M 175.730469 126.851562 C 145.730469 160.875 153.902344 214.484375 157.484375 231.511719 C 162.742188 231.675781 168.8125 232.625 175.679688 234.855469 C 175.679688 234.855469 146.28125 187.132812 175.730469 126.851562 " fill-opacity="1" fill-rule="nonzero"/><g clip-path="url(#72586aa13d)"><path stroke-linecap="round" transform="matrix(0.0424526, 0, 0, -0.0423055, 127.865416, 264.957812)" fill="none" stroke-linejoin="miter" d="M 918.621082 2710.864363 C 978.522431 2983.343204 1127.493681 3264.501479 1127.493681 3264.501479 C 1127.493681 3264.501479 1033.731047 3170.68972 896.077564 3033.019116 " stroke="#293982" stroke-width="20" stroke-opacity="1" stroke-miterlimit="10"/></g><g clip-path="url(#c6921e3d81)"><path stroke-linecap="round" transform="matrix(0.0424526, 0, 0, -0.0423055, 127.865416, 264.957812)" fill="none" stroke-linejoin="miter" d="M 1247.480407 3264.501479 C 1247.480407 3264.501479 1400.316259 2837.177835 1434.085529 2481.505691 " stroke="#293982" stroke-width="20" stroke-opacity="1" stroke-miterlimit="10"/></g><path stroke-linecap="round" transform="matrix(0.0424526, 0, 0, -0.0423055, 127.865416, 264.957812)" fill="none" stroke-linejoin="miter" d="M 1441.538693 2414.193907 L 1451.660272 2296.652205 " stroke="#293982" stroke-width="20" stroke-opacity="1" stroke-miterlimit="10"/><path stroke-linecap="round" transform="matrix(0.0424526, 0, 0, -0.0423055, 127.865416, 264.957812)" fill="none" stroke-linejoin="miter" d="M 1023.885511 922.162193 L 1153.073673 652.268716 L 1247.480407 709.793053 L 1292.383414 852.265046 " stroke="#293982" stroke-width="20" stroke-opacity="1" stroke-miterlimit="10"/><g clip-path="url(#902a48cf22)"><path stroke-linecap="round" transform="matrix(0.0424526, 0, 0, -0.0423055, 127.865416, 264.957812)" fill="none" stroke-linejoin="miter" d="M 3310.35054 640.080646 C 3310.35054 640.080646 3178.125896 1122.15865 3095.865054 1313.475567 " stroke="#293982" stroke-width="20" stroke-opacity="1" stroke-miterlimit="10"/></g><g clip-path="url(#7643defd7f)"><path stroke-linecap="round" transform="matrix(0.0424526, 0, 0, -0.0423055, 127.865416, 264.957812)" fill="none" stroke-linejoin="miter" d="M 3073.413548 1368.045209 L 3029.338667 1469.982408 " stroke="#293982" stroke-width="20" stroke-opacity="1" stroke-miterlimit="10"/></g><g clip-path="url(#2d3b9a2b09)"><path fill="#db5f6e" d="M 140.652344 264.957031 C 140.652344 264.957031 234.132812 254.5625 260.328125 248.054688 C 260.328125 248.054688 248.421875 264.957031 242.167969 264.957031 C 235.917969 264.957031 140.652344 264.957031 140.652344 264.957031 " fill-opacity="1" fill-rule="nonzero"/></g></svg>