<svg xmlns="http://www.w3.org/2000/svg" xmlns:xlink="http://www.w3.org/1999/xlink" width="512" zoomAndPan="magnify" viewBox="0 0 384 383.999986" height="512" preserveAspectRatio="xMidYMid meet" version="1.0"><defs><clipPath id="6f6edcd5ae"><path d="M 115.199219 141.792969 L 268.949219 141.792969 L 268.949219 242.292969 L 115.199219 242.292969 Z M 115.199219 141.792969 " clip-rule="nonzero"/></clipPath><clipPath id="7d349cb435"><path d="M 151 141.792969 L 163 141.792969 L 163 164 L 151 164 Z M 151 141.792969 " clip-rule="nonzero"/></clipPath><clipPath id="4cf5aafcab"><path d="M 115.199219 153 L 175 153 L 175 242.292969 L 115.199219 242.292969 Z M 115.199219 153 " clip-rule="nonzero"/></clipPath><clipPath id="890136a6c6"><path d="M 178 185 L 204 185 L 204 242.292969 L 178 242.292969 Z M 178 185 " clip-rule="nonzero"/></clipPath><clipPath id="47f3b870fe"><path d="M 209 197 L 268.949219 197 L 268.949219 242.292969 L 209 242.292969 Z M 209 197 " clip-rule="nonzero"/></clipPath><clipPath id="4acbc1879c"><path d="M 201 190 L 233 190 L 233 242.292969 L 201 242.292969 Z M 201 190 " clip-rule="nonzero"/></clipPath><clipPath id="12490a5006"><path d="M 223 224 L 268.949219 224 L 268.949219 229 L 223 229 Z M 223 224 " clip-rule="nonzero"/></clipPath></defs><g clip-path="url(#6f6edcd5ae)"><path fill="#f79f68" d="M 268.851562 242.289062 L 116.199219 242.289062 L 116.199219 228.066406 C 116.199219 227.515625 115.609375 227.078125 115.457031 226.15625 C 115.300781 225.238281 116.730469 224.375 116.730469 224.375 L 116.730469 213.1875 C 116.730469 213.1875 115.628906 211.699219 115.460938 209.9375 C 115.296875 208.171875 117.777344 205.527344 117.777344 205.527344 L 117.777344 198.636719 C 117.777344 198.636719 117.28125 197.976562 116.953125 195.164062 C 116.621094 192.355469 118.769531 188.660156 118.769531 188.660156 L 119.488281 175.011719 C 119.488281 175.011719 118.273438 174.554688 118.109375 174.609375 C 117.941406 174.664062 117.421875 169.8125 123.867188 160.058594 C 125.378906 157.777344 127.410156 155.632812 129.707031 153.675781 C 137.230469 147.257812 147.574219 142.800781 151.5625 141.789062 L 154.777344 144.367188 L 155.035156 145.65625 L 157.863281 148.152344 L 162.917969 162.511719 L 164.957031 162.261719 L 167.546875 164.6875 L 167.546875 174.003906 L 171.183594 185.796875 L 178.679688 185.796875 L 183.808594 191.199219 L 201.417969 191.199219 L 201.417969 186.265625 C 201.417969 186.265625 225.390625 185.851562 240.769531 188.992188 C 256.148438 192.132812 267.058594 197.257812 267.554688 203.625 C 267.632812 204.628906 267.722656 206.289062 267.808594 208.359375 C 268.285156 219.398438 268.851562 242.289062 268.851562 242.289062 Z M 268.851562 242.289062 " fill-opacity="1" fill-rule="nonzero"/></g><g clip-path="url(#7d349cb435)"><path fill="#d36126" d="M 162.917969 162.511719 L 157.5 163.550781 L 154.449219 146.574219 L 153.089844 146.242188 L 151.5625 141.789062 L 154.78125 144.367188 L 155.035156 145.65625 L 157.867188 148.152344 Z M 162.917969 162.511719 " fill-opacity="1" fill-rule="nonzero"/></g><g clip-path="url(#4cf5aafcab)"><path fill="#e58753" d="M 116.199219 242.289062 L 116.199219 228.066406 C 116.199219 227.515625 115.609375 227.078125 115.457031 226.15625 C 115.300781 225.238281 116.730469 224.375 116.730469 224.375 L 116.730469 213.1875 C 116.730469 213.1875 115.628906 211.699219 115.460938 209.9375 C 115.296875 208.171875 117.777344 205.527344 117.777344 205.527344 L 117.777344 198.636719 C 117.777344 198.636719 117.28125 197.976562 116.953125 195.164062 C 116.621094 192.355469 118.769531 188.660156 118.769531 188.660156 L 119.488281 175.011719 C 119.488281 175.011719 118.273438 174.554688 118.109375 174.609375 C 117.941406 174.664062 117.421875 169.8125 123.867188 160.058594 C 125.378906 157.777344 127.410156 155.632812 129.707031 153.675781 C 129.457031 169.808594 133.503906 209.257812 174.214844 242.289062 Z M 116.199219 242.289062 " fill-opacity="1" fill-rule="nonzero"/></g><path fill="#d36126" d="M 171.1875 185.796875 L 169.476562 185.796875 C 169.476562 185.796875 165.785156 175.492188 165.785156 175.015625 C 165.785156 174.535156 164.957031 162.261719 164.957031 162.261719 L 167.546875 164.6875 L 167.546875 174.003906 Z M 171.1875 185.796875 " fill-opacity="1" fill-rule="nonzero"/><path fill="#a03642" d="M 137.324219 162.261719 L 139.789062 160.828125 L 139.789062 166.378906 L 137.324219 167.296875 Z M 137.324219 162.261719 " fill-opacity="1" fill-rule="nonzero"/><path fill="#a03642" d="M 126.707031 170.015625 L 125.566406 171.742188 L 125.566406 175.417969 L 126.707031 174.351562 Z M 126.707031 170.015625 " fill-opacity="1" fill-rule="nonzero"/><path fill="#a03642" d="M 145.996094 169.566406 L 145.996094 171.082031 L 147.84375 170.585938 L 147.707031 168.738281 Z M 145.996094 169.566406 " fill-opacity="1" fill-rule="nonzero"/><path fill="#a03642" d="M 161.371094 188.605469 C 159.953125 188.753906 157.253906 189.082031 153.789062 189.699219 L 153.789062 180.394531 C 153.789062 178.492188 155.148438 176.152344 157.296875 175.90625 C 159.445312 175.65625 160.851562 177.253906 161.074219 178.605469 C 161.265625 179.792969 161.355469 186.910156 161.371094 188.605469 Z M 161.371094 188.605469 " fill-opacity="1" fill-rule="nonzero"/><path fill="#a03642" d="M 150.5625 190.3125 C 148.523438 190.730469 146.316406 191.234375 144.011719 191.839844 C 144.015625 189.988281 144.023438 184.773438 144.042969 183.199219 C 144.0625 181.488281 145.21875 179.464844 147.039062 179.195312 C 148.886719 178.925781 150.125 180.273438 150.316406 181.519531 C 150.476562 182.558594 150.539062 188.050781 150.5625 190.3125 Z M 150.5625 190.3125 " fill-opacity="1" fill-rule="nonzero"/><path fill="#a03642" d="M 141.378906 192.570312 C 139.566406 193.101562 137.71875 193.691406 135.863281 194.355469 C 135.867188 192.59375 135.878906 187.816406 135.917969 186.238281 C 135.953125 184.71875 136.910156 183.011719 138.40625 182.726562 C 139.957031 182.429688 141.019531 183.527344 141.183594 184.667969 C 141.320312 185.628906 141.363281 190.285156 141.378906 192.574219 Z M 141.378906 192.570312 " fill-opacity="1" fill-rule="nonzero"/><path fill="#a03642" d="M 133.792969 195.125 C 132.285156 195.707031 130.78125 196.339844 129.304688 197.023438 C 129.308594 195.445312 129.324219 190.941406 129.386719 189.324219 C 129.4375 187.992188 130.199219 186.601562 131.363281 186.300781 C 132.617188 185.980469 133.507812 186.828125 133.644531 187.863281 C 133.761719 188.78125 133.789062 192.949219 133.792969 195.125 Z M 133.792969 195.125 " fill-opacity="1" fill-rule="nonzero"/><path fill="#a03642" d="M 127.769531 197.753906 C 126.59375 198.335938 125.433594 198.949219 124.304688 199.601562 C 124.308594 198.277344 124.324219 193.945312 124.417969 192.265625 C 124.476562 191.121094 125.046875 190.035156 125.886719 189.730469 C 126.839844 189.375 127.558594 189.980469 127.664062 190.914062 C 127.769531 191.816406 127.773438 195.765625 127.769531 197.753906 Z M 127.769531 197.753906 " fill-opacity="1" fill-rule="nonzero"/><path fill="#a03642" d="M 123.277344 200.210938 C 122.445312 200.714844 121.632812 201.242188 120.839844 201.789062 C 120.84375 200.675781 120.855469 196.601562 120.980469 194.867188 C 121.046875 193.914062 121.429688 193.128906 121.9375 192.824219 C 122.597656 192.425781 123.136719 192.800781 123.21875 193.628906 C 123.308594 194.550781 123.289062 198.480469 123.277344 200.210938 Z M 123.277344 200.210938 " fill-opacity="1" fill-rule="nonzero"/><path fill="#a03642" d="M 120.285156 202.175781 C 119.808594 202.515625 119.339844 202.867188 118.878906 203.222656 C 118.878906 202.039062 118.886719 198.625 119.042969 196.957031 C 119.238281 194.917969 120.183594 194.667969 120.277344 195.828125 C 120.351562 196.78125 120.300781 200.800781 120.285156 202.175781 Z M 120.285156 202.175781 " fill-opacity="1" fill-rule="nonzero"/><path fill="#a03642" d="M 173.71875 202.714844 L 173.71875 212.632812 C 171.71875 212.753906 168.503906 212.964844 164.570312 213.28125 L 164.570312 203.71875 C 164.570312 203.386719 164.589844 203.054688 164.648438 202.730469 C 165.601562 197.382812 173.71875 196.933594 173.71875 202.71875 Z M 173.71875 202.714844 " fill-opacity="1" fill-rule="nonzero"/><path fill="#a03642" d="M 160.410156 204.46875 L 160.410156 213.628906 C 157.871094 213.855469 155.148438 214.117188 152.332031 214.417969 L 152.332031 205.464844 C 152.332031 205.148438 152.351562 204.832031 152.402344 204.519531 C 153.246094 199.410156 160.410156 198.957031 160.410156 204.46875 Z M 160.410156 204.46875 " fill-opacity="1" fill-rule="nonzero"/><path fill="#a03642" d="M 149.433594 206.21875 L 149.433594 214.742188 C 147.117188 215.007812 144.765625 215.300781 142.429688 215.621094 L 142.429688 207.207031 C 142.429688 206.90625 142.445312 206.605469 142.488281 206.308594 C 143.21875 201.433594 149.433594 200.976562 149.433594 206.21875 Z M 149.433594 206.21875 " fill-opacity="1" fill-rule="nonzero"/><path fill="#a03642" d="M 140.5 207.941406 L 140.5 215.894531 C 138.492188 216.183594 136.503906 216.496094 134.570312 216.832031 L 134.570312 208.917969 C 134.570312 208.632812 134.582031 208.347656 134.621094 208.066406 C 135.238281 203.429688 140.503906 202.964844 140.503906 207.941406 Z M 140.5 207.941406 " fill-opacity="1" fill-rule="nonzero"/><path fill="#a03642" d="M 133.335938 209.601562 L 133.335938 217.046875 C 131.660156 217.351562 130.035156 217.667969 128.476562 218.007812 L 128.476562 210.570312 C 128.476562 210.300781 128.488281 210.03125 128.519531 209.761719 C 129.027344 205.363281 133.335938 204.894531 133.335938 209.597656 Z M 133.335938 209.601562 " fill-opacity="1" fill-rule="nonzero"/><path fill="#a03642" d="M 127.652344 211.175781 L 127.652344 218.191406 C 126.332031 218.488281 125.066406 218.796875 123.867188 219.121094 L 123.867188 212.140625 C 123.867188 211.882812 123.875 211.628906 123.898438 211.375 C 124.296875 207.214844 127.652344 206.742188 127.652344 211.175781 Z M 127.652344 211.175781 " fill-opacity="1" fill-rule="nonzero"/><path fill="#a03642" d="M 123.167969 212.636719 L 123.167969 219.3125 C 122.210938 219.585938 121.304688 219.863281 120.453125 220.152344 L 120.453125 213.59375 C 120.453125 213.351562 120.460938 213.113281 120.476562 212.871094 C 120.761719 208.949219 123.167969 208.472656 123.167969 212.636719 Z M 123.167969 212.636719 " fill-opacity="1" fill-rule="nonzero"/><path fill="#a03642" d="M 119.597656 213.957031 L 119.597656 220.453125 C 119.019531 220.664062 118.472656 220.878906 117.957031 221.097656 L 117.957031 214.910156 C 117.957031 214.679688 117.960938 214.453125 117.972656 214.230469 C 118.144531 210.546875 119.597656 210.0625 119.597656 213.957031 Z M 119.597656 213.957031 " fill-opacity="1" fill-rule="nonzero"/><path fill="#a03642" d="M 188.601562 230.21875 L 188.601562 240.746094 L 179.011719 240.746094 L 179.011719 230.21875 C 179.011719 222.648438 188.601562 222.648438 188.601562 230.21875 Z M 188.601562 230.21875 " fill-opacity="1" fill-rule="nonzero"/><path fill="#a03642" d="M 174.28125 230.5625 L 174.28125 240.746094 L 165.589844 240.746094 L 165.589844 230.5625 C 165.589844 223.257812 174.28125 223.257812 174.28125 230.5625 Z M 174.28125 230.5625 " fill-opacity="1" fill-rule="nonzero"/><path fill="#a03642" d="M 161.617188 230.941406 L 161.617188 240.746094 L 153.824219 240.746094 L 153.824219 230.941406 C 153.824219 223.90625 161.617188 223.90625 161.617188 230.941406 Z M 161.617188 230.941406 " fill-opacity="1" fill-rule="nonzero"/><path fill="#a03642" d="M 150.535156 231.339844 L 150.535156 240.746094 L 143.640625 240.746094 L 143.640625 231.339844 C 143.640625 224.570312 150.535156 224.570312 150.535156 231.339844 Z M 150.535156 231.339844 " fill-opacity="1" fill-rule="nonzero"/><path fill="#a03642" d="M 140.945312 231.75 L 140.945312 240.746094 L 134.949219 240.746094 L 134.949219 231.75 C 134.949219 225.246094 140.945312 225.246094 140.945312 231.75 Z M 140.945312 231.75 " fill-opacity="1" fill-rule="nonzero"/><path fill="#a03642" d="M 132.769531 232.15625 L 132.769531 240.746094 L 127.671875 240.746094 L 127.671875 232.15625 C 127.671875 225.914062 132.769531 225.914062 132.769531 232.15625 Z M 132.769531 232.15625 " fill-opacity="1" fill-rule="nonzero"/><path fill="#a03642" d="M 125.921875 232.542969 L 125.921875 240.746094 L 121.71875 240.746094 L 121.71875 232.542969 C 121.71875 226.570312 125.921875 226.570312 125.921875 232.542969 Z M 125.921875 232.542969 " fill-opacity="1" fill-rule="nonzero"/><path fill="#a03642" d="M 120.316406 232.898438 L 120.316406 240.746094 L 117.015625 240.746094 L 117.015625 232.898438 C 117.015625 227.191406 120.316406 227.191406 120.316406 232.898438 Z M 120.316406 232.898438 " fill-opacity="1" fill-rule="nonzero"/><path fill="#a03642" d="M 195.4375 213.28125 L 204.695312 213.28125 L 204.695312 204.753906 C 204.695312 199.023438 195.4375 199.023438 195.4375 204.753906 Z M 195.4375 213.28125 " fill-opacity="1" fill-rule="nonzero"/><path fill="#a03642" d="M 209.820312 240.746094 L 218.367188 240.746094 L 218.367188 230.71875 C 218.367188 223.980469 209.820312 223.980469 209.820312 230.71875 Z M 209.820312 240.746094 " fill-opacity="1" fill-rule="nonzero"/><path fill="#a03642" d="M 204.695312 230.71875 L 204.695312 240.746094 L 202.238281 240.746094 C 199.84375 237.550781 196.371094 232.851562 196.207031 232.3125 C 196.195312 232.269531 196.175781 232.183594 196.152344 232.058594 L 196.152344 230.71875 C 196.152344 229.097656 196.644531 227.871094 197.394531 227.03125 C 199.765625 224.367188 204.699219 225.597656 204.699219 230.71875 Z M 204.695312 230.71875 " fill-opacity="1" fill-rule="nonzero"/><g clip-path="url(#890136a6c6)"><path fill="#d36126" d="M 203.738281 242.289062 L 203.394531 242.289062 C 203.058594 241.84375 202.664062 241.316406 202.238281 240.746094 C 199.84375 237.550781 196.371094 232.851562 196.207031 232.3125 C 196.195312 232.269531 196.175781 232.183594 196.152344 232.058594 C 195.6875 229.648438 193.148438 212.472656 193.148438 212.472656 L 185.046875 212.472656 C 185.046875 212.472656 180.582031 205.195312 180.5 204.039062 C 180.417969 202.878906 178.683594 185.796875 178.683594 185.796875 L 183.808594 191.195312 L 183.367188 203.929688 L 186.234375 210.925781 L 192.847656 211.421875 L 196.042969 214.042969 L 197.394531 227.027344 L 197.773438 230.65625 L 202.949219 240.742188 L 203.738281 242.285156 Z M 203.738281 242.289062 " fill-opacity="1" fill-rule="nonzero"/></g><g clip-path="url(#47f3b870fe)"><path fill="#f9a97d" d="M 268.851562 242.289062 L 232.199219 242.289062 C 231.03125 241.6875 229.726562 240.964844 228.5625 240.335938 C 228.136719 240.101562 227.703125 239.871094 227.277344 239.632812 L 227.234375 239.527344 C 225.34375 235.191406 223.28125 230.242188 221.511719 225.859375 L 221.433594 225.671875 L 221.472656 225.441406 C 221.710938 224.09375 222.191406 221.457031 222.457031 220 C 222.125 218.75 221.800781 217.5 221.472656 216.25 L 217.964844 216.097656 C 217.574219 216.078125 213.433594 215.878906 213.179688 215.867188 C 213.082031 215.535156 212.125 212.515625 211.996094 212.101562 C 211.167969 209.433594 210.242188 206.453125 209.421875 203.707031 L 214.285156 203.707031 L 214.285156 197.039062 L 218.035156 197.039062 L 218.035156 203.488281 L 223.324219 203.488281 L 223.324219 197.039062 L 227.019531 197.039062 L 227.019531 204.644531 L 232.75 205.03125 L 232.75 198.195312 L 235.503906 198.472656 L 235.503906 205.25 L 240.523438 205.800781 L 240.523438 199.738281 L 243.386719 200.179688 L 243.386719 206.132812 L 247.191406 206.519531 L 247.191406 201.007812 L 250 201.449219 L 250 205.910156 L 253.695312 206.519531 L 253.695312 202.550781 L 255.789062 203.265625 L 255.789062 206.960938 L 258.105469 207.457031 L 258.105469 204.257812 L 260.015625 204.992188 L 260.015625 207.601562 L 261.816406 208.410156 L 261.816406 205.617188 L 263.503906 206.644531 L 263.503906 209.144531 L 264.460938 209.695312 L 264.460938 204.992188 L 265.710938 205.800781 L 265.710938 210.28125 L 266.59375 210.832031 L 266.59375 207.34375 L 267.8125 208.359375 C 268.285156 219.394531 268.851562 242.285156 268.851562 242.285156 Z M 268.851562 242.289062 " fill-opacity="1" fill-rule="nonzero"/></g><path fill="#a03642" d="M 224.539062 210.902344 L 224.539062 219.496094 C 224.382812 219.488281 224.230469 219.484375 224.078125 219.480469 C 223.46875 219.457031 222.875 219.4375 222.300781 219.417969 C 222.023438 218.363281 221.75 217.304688 221.472656 216.25 L 217.964844 216.097656 C 217.898438 216.097656 217.726562 216.085938 217.484375 216.074219 L 217.484375 210.902344 C 217.484375 204.175781 224.539062 204.175781 224.539062 210.902344 Z M 224.539062 210.902344 " fill-opacity="1" fill-rule="nonzero"/><path fill="#a03642" d="M 233.554688 219.945312 C 231.300781 219.800781 229.136719 219.6875 227.113281 219.601562 L 227.085938 211.320312 C 227.066406 204.59375 233.503906 204.589844 233.527344 211.3125 Z M 233.554688 219.945312 " fill-opacity="1" fill-rule="nonzero"/><path fill="#a03642" d="M 242.542969 220.59375 C 240.601562 220.433594 238.726562 220.300781 236.964844 220.183594 L 236.902344 212.109375 C 236.847656 205.386719 242.421875 205.371094 242.476562 212.09375 Z M 242.542969 220.59375 " fill-opacity="1" fill-rule="nonzero"/><path fill="#a03642" d="M 250.457031 221.507812 C 248.828125 221.332031 247.246094 221.175781 245.738281 221.035156 L 245.640625 213.164062 C 245.554688 206.441406 250.265625 206.414062 250.351562 213.136719 Z M 250.457031 221.507812 " fill-opacity="1" fill-rule="nonzero"/><path fill="#a03642" d="M 257.300781 222.617188 C 255.988281 222.421875 254.695312 222.246094 253.441406 222.082031 L 253.3125 214.414062 C 253.195312 207.691406 257.042969 207.65625 257.160156 214.378906 Z M 257.300781 222.617188 " fill-opacity="1" fill-rule="nonzero"/><path fill="#a03642" d="M 263.085938 223.847656 C 262.085938 223.636719 261.082031 223.4375 260.085938 223.25 L 259.925781 215.789062 C 259.773438 209.066406 262.757812 209.019531 262.910156 215.742188 Z M 263.085938 223.847656 " fill-opacity="1" fill-rule="nonzero"/><path fill="#a03642" d="M 267.816406 225.132812 C 267.128906 224.90625 266.414062 224.683594 265.675781 224.472656 L 265.480469 217.214844 C 265.296875 210.492188 267.417969 210.433594 267.601562 217.15625 Z M 267.816406 225.132812 " fill-opacity="1" fill-rule="nonzero"/><path fill="#a03642" d="M 233.769531 232.367188 L 233.769531 240.519531 L 228.898438 240.519531 C 228.789062 240.457031 228.675781 240.398438 228.566406 240.335938 C 228.136719 240.101562 227.703125 239.871094 227.28125 239.632812 L 227.234375 239.527344 C 227.035156 239.070312 226.835938 238.605469 226.632812 238.136719 L 226.632812 232.367188 C 226.632812 226.40625 233.769531 226.40625 233.769531 232.367188 Z M 233.769531 232.367188 " fill-opacity="1" fill-rule="nonzero"/><path fill="#a03642" d="M 243.46875 240.519531 L 237.292969 240.519531 L 237.273438 232.585938 C 237.261719 226.90625 243.4375 226.902344 243.449219 232.582031 Z M 243.46875 240.519531 " fill-opacity="1" fill-rule="nonzero"/><path fill="#a03642" d="M 251.546875 240.519531 L 246.324219 240.519531 L 246.292969 232.933594 C 246.265625 227.535156 251.488281 227.523438 251.511719 232.921875 Z M 251.546875 240.519531 " fill-opacity="1" fill-rule="nonzero"/><path fill="#a03642" d="M 258.183594 240.519531 L 253.921875 240.519531 L 253.867188 233.382812 C 253.832031 228.265625 258.09375 228.246094 258.132812 233.367188 Z M 258.183594 240.519531 " fill-opacity="1" fill-rule="nonzero"/><path fill="#a03642" d="M 263.5625 240.519531 L 260.261719 240.519531 L 260.191406 233.90625 C 260.144531 229.070312 263.449219 229.042969 263.496094 233.882812 L 263.566406 240.519531 Z M 263.5625 240.519531 " fill-opacity="1" fill-rule="nonzero"/><path fill="#a03642" d="M 267.875 240.519531 L 265.527344 240.519531 L 265.445312 234.472656 C 265.382812 229.917969 267.730469 229.882812 267.792969 234.441406 Z M 267.875 240.519531 " fill-opacity="1" fill-rule="nonzero"/><g clip-path="url(#4acbc1879c)"><path fill="#d36126" d="M 232.199219 242.289062 C 231.144531 241.746094 229.972656 241.101562 228.898438 240.519531 C 228.785156 240.457031 228.675781 240.398438 228.5625 240.335938 C 228.136719 240.101562 227.703125 239.871094 227.277344 239.632812 L 227.234375 239.527344 C 227.035156 239.070312 226.835938 238.609375 226.632812 238.136719 C 224.914062 234.15625 223.097656 229.78125 221.511719 225.859375 L 221.433594 225.671875 L 221.472656 225.441406 C 221.710938 224.09375 222.191406 221.457031 222.457031 220 C 222.40625 219.804688 222.355469 219.609375 222.300781 219.417969 C 222.023438 218.363281 221.75 217.304688 221.472656 216.25 L 217.964844 216.097656 C 217.898438 216.097656 217.726562 216.085938 217.484375 216.074219 C 216.289062 216.019531 213.390625 215.875 213.179688 215.867188 C 213.082031 215.535156 212.125 212.515625 211.996094 212.105469 C 211.167969 209.433594 210.242188 206.457031 209.421875 203.707031 C 209.304688 203.316406 209.1875 202.933594 209.078125 202.550781 L 209.050781 202.457031 L 209.046875 202.386719 C 208.992188 201.457031 208.9375 200.53125 208.890625 199.597656 C 208.765625 197.128906 208.605469 194.078125 208.515625 191.5625 C 206.175781 191.472656 203.746094 191.34375 201.417969 191.199219 C 203.867188 191.03125 206.429688 190.917969 208.886719 190.816406 L 209.222656 190.800781 L 209.265625 191.167969 C 209.65625 194.464844 210.238281 199.429688 210.457031 202.109375 C 210.640625 202.632812 210.824219 203.167969 211.007812 203.707031 C 211.546875 205.277344 212.09375 206.890625 212.601562 208.410156 C 213.074219 209.808594 213.949219 212.457031 214.503906 214.140625 C 215.375 214.179688 216.414062 214.226562 217.484375 214.277344 C 219.414062 214.367188 221.457031 214.464844 222.875 214.539062 C 223.273438 216.183594 223.6875 217.832031 224.082031 219.476562 C 224.117188 219.636719 224.15625 219.796875 224.195312 219.953125 C 223.898438 221.375 223.34375 224.011719 223.015625 225.535156 C 224.195312 228.808594 225.460938 232.40625 226.632812 235.855469 C 227.023438 237.003906 227.402344 238.132812 227.769531 239.230469 C 228.117188 239.460938 228.460938 239.703125 228.808594 239.9375 C 229.085938 240.125 229.367188 240.320312 229.65625 240.515625 C 230.507812 241.101562 231.402344 241.722656 232.199219 242.285156 Z M 232.199219 242.289062 " fill-opacity="1" fill-rule="nonzero"/></g><path fill="#901d2c" d="M 119.488281 175.011719 C 120.59375 168.195312 125.296875 161.800781 130.429688 157.355469 C 136.875 151.792969 144.855469 148.167969 153.089844 146.246094 C 141.960938 150.320312 130.953125 156.234375 123.976562 166.089844 C 123.160156 167.242188 122.378906 168.476562 121.710938 169.726562 C 120.796875 171.40625 120.003906 173.167969 119.488281 175.015625 Z M 119.488281 175.011719 " fill-opacity="1" fill-rule="nonzero"/><path fill="#901d2c" d="M 118.769531 188.660156 C 119.375 187.046875 120.382812 185.589844 121.425781 184.222656 C 124.335938 180.523438 128.019531 177.492188 131.910156 174.867188 C 139.71875 169.699219 148.492188 166.035156 157.5 163.550781 C 146.6875 168.003906 135.820312 172.757812 126.632812 180.101562 C 125.128906 181.320312 123.664062 182.632812 122.328125 184.03125 C 120.992188 185.445312 119.703125 186.945312 118.769531 188.660156 Z M 118.769531 188.660156 " fill-opacity="1" fill-rule="nonzero"/><path fill="#901d2c" d="M 117.777344 198.636719 C 117.742188 197.421875 118.015625 196.210938 118.386719 195.054688 C 118.671875 194.1875 119.054688 193.328125 119.5 192.53125 C 123.398438 186.28125 130.867188 181.785156 137.460938 178.824219 C 146.347656 174.917969 155.960938 172.746094 165.585938 171.761719 C 156.734375 173.574219 147.945312 175.722656 139.601562 179.210938 C 135.738281 180.824219 131.976562 182.71875 128.484375 185.023438 C 125.292969 187.183594 122.179688 189.632812 119.945312 192.808594 C 119.460938 193.550781 119.046875 194.355469 118.699219 195.171875 C 118.238281 196.277344 117.875 197.4375 117.777344 198.636719 Z M 117.777344 198.636719 " fill-opacity="1" fill-rule="nonzero"/><path fill="#901d2c" d="M 117.777344 205.527344 C 119.625 203.566406 121.921875 202.03125 124.207031 200.628906 C 127.691406 198.554688 131.40625 196.855469 135.207031 195.449219 C 149.15625 190.332031 164.113281 188.332031 178.910156 188.0625 C 162.941406 189.742188 146.839844 191.996094 131.796875 197.824219 C 129.324219 198.796875 126.847656 199.898438 124.496094 201.140625 C 122.136719 202.398438 119.800781 203.765625 117.777344 205.527344 Z M 117.777344 205.527344 " fill-opacity="1" fill-rule="nonzero"/><path fill="#901d2c" d="M 116.730469 213.1875 C 116.753906 212.652344 116.964844 212.140625 117.203125 211.667969 C 117.523438 211.03125 117.957031 210.449219 118.410156 209.90625 C 120.417969 207.621094 123.027344 205.925781 125.726562 204.585938 C 135.335938 199.972656 145.839844 197.496094 156.324219 195.882812 C 159.832031 195.371094 163.359375 195.007812 166.898438 194.828125 C 171.136719 194.617188 175.410156 194.648438 179.625 195.136719 C 172.574219 194.964844 165.542969 195.597656 158.578125 196.640625 C 150.929688 197.800781 143.355469 199.460938 135.949219 201.6875 C 132.929688 202.617188 129.929688 203.628906 127.027344 204.871094 C 124.132812 206.089844 121.3125 207.589844 119.003906 209.742188 C 118.511719 210.210938 118.007812 210.742188 117.613281 211.300781 C 117.210938 211.867188 116.839844 212.488281 116.730469 213.1875 Z M 116.730469 213.1875 " fill-opacity="1" fill-rule="nonzero"/><path fill="#901d2c" d="M 116.730469 224.375 C 121.230469 222.648438 126.109375 221.625 130.832031 220.667969 C 136.777344 219.535156 142.867188 218.699219 148.882812 218.050781 C 163.789062 216.53125 178.832031 215.984375 193.796875 216.832031 C 185.765625 216.953125 177.574219 217.246094 169.546875 217.671875 C 159.882812 218.199219 150.183594 218.984375 140.570312 220.128906 C 134.96875 220.816406 129.339844 221.601562 123.804688 222.6875 C 121.429688 223.175781 119.050781 223.664062 116.730469 224.375 Z M 116.730469 224.375 " fill-opacity="1" fill-rule="nonzero"/><path fill="#901d2c" d="M 116.199219 228.066406 C 116.890625 227.621094 117.6875 227.355469 118.457031 227.078125 C 119.421875 226.746094 120.4375 226.46875 121.425781 226.207031 C 123.929688 225.5625 126.738281 225.042969 129.289062 224.578125 C 136.132812 223.414062 143.203125 222.589844 150.121094 222.03125 C 157.433594 221.410156 164.96875 221.050781 172.304688 220.898438 C 179.675781 220.804688 187.15625 220.808594 194.5 221.507812 C 186.285156 221.367188 178.078125 221.65625 169.875 222.015625 C 159.273438 222.496094 148.515625 223.210938 137.957031 224.296875 C 133.972656 224.71875 129.707031 225.226562 125.75 225.839844 C 123.316406 226.203125 120.890625 226.625 118.511719 227.25 C 117.722656 227.472656 116.917969 227.675781 116.199219 228.070312 Z M 116.199219 228.066406 " fill-opacity="1" fill-rule="nonzero"/><path fill="#901d2c" d="M 183.566406 198.195312 C 187.765625 197.71875 191.972656 197.609375 196.191406 197.59375 C 200.410156 197.605469 204.617188 197.714844 208.816406 198.195312 C 204.617188 198.671875 200.410156 198.78125 196.191406 198.792969 C 191.972656 198.78125 187.765625 198.671875 183.566406 198.195312 Z M 183.566406 198.195312 " fill-opacity="1" fill-rule="nonzero"/><path fill="#901d2c" d="M 213.179688 215.867188 C 210.367188 216.34375 207.542969 216.453125 204.707031 216.46875 C 201.871094 216.453125 199.042969 216.347656 196.234375 215.867188 C 199.042969 215.386719 201.871094 215.28125 204.707031 215.265625 C 207.542969 215.28125 210.367188 215.390625 213.179688 215.867188 Z M 213.179688 215.867188 " fill-opacity="1" fill-rule="nonzero"/><path fill="#901d2c" d="M 221.855469 223.300781 C 217.734375 223.777344 213.601562 223.886719 209.460938 223.902344 C 205.320312 223.890625 201.1875 223.78125 197.0625 223.300781 C 201.1875 222.824219 205.320312 222.714844 209.460938 222.703125 C 213.601562 222.714844 217.734375 222.824219 221.855469 223.300781 Z M 221.855469 223.300781 " fill-opacity="1" fill-rule="nonzero"/><g clip-path="url(#12490a5006)"><path fill="#901d2c" d="M 223.207031 224.644531 C 234.605469 224.0625 246.082031 224.527344 257.375 226.246094 C 259.226562 226.539062 261.167969 226.902344 262.996094 227.320312 C 264.851562 227.753906 266.699219 228.238281 268.492188 228.878906 C 266.398438 228.441406 264.292969 228.101562 262.183594 227.792969 C 249.304688 226.042969 236.167969 225.542969 223.207031 224.644531 Z M 223.207031 224.644531 " fill-opacity="1" fill-rule="nonzero"/></g></svg>