<svg xmlns="http://www.w3.org/2000/svg" xmlns:xlink="http://www.w3.org/1999/xlink" width="512" zoomAndPan="magnify" viewBox="0 0 384 383.999986" height="512" preserveAspectRatio="xMidYMid meet" version="1.0"><defs><clipPath id="5eebbdab8f"><path d="M 147 232 L 234 232 L 234 268.949219 L 147 268.949219 Z M 147 232 " clip-rule="nonzero"/></clipPath><clipPath id="f1e8e6e53d"><path d="M 184 115.199219 L 198 115.199219 L 198 172 L 184 172 Z M 184 115.199219 " clip-rule="nonzero"/></clipPath><clipPath id="e7a4114d3b"><path d="M 192 160 L 248.878906 160 L 248.878906 266 L 192 266 Z M 192 160 " clip-rule="nonzero"/></clipPath><clipPath id="ac95313a20"><path d="M 228 154 L 248.878906 154 L 248.878906 166 L 228 166 Z M 228 154 " clip-rule="nonzero"/></clipPath><clipPath id="7a5299f0b4"><path d="M 168 251 L 213 251 L 213 268.949219 L 168 268.949219 Z M 168 251 " clip-rule="nonzero"/></clipPath></defs><path fill="#481f14" d="M 215.667969 193.734375 C 215.667969 227.726562 167.582031 257.203125 153.0625 257.203125 C 173.3125 225.851562 163.082031 212.972656 163.082031 193.734375 C 163.082031 174.496094 174.855469 158.898438 189.375 158.898438 C 203.898438 158.898438 215.667969 174.496094 215.667969 193.734375 " fill-opacity="1" fill-rule="nonzero"/><g clip-path="url(#5eebbdab8f)"><path fill="#9c481e" d="M 233.574219 232.289062 C 213.824219 238.859375 197.542969 234.523438 190.75 233.929688 C 183.957031 234.523438 167.675781 238.859375 147.925781 232.289062 C 145.179688 233.535156 162.191406 246.351562 162.191406 249.359375 C 162.191406 249.359375 185.703125 268.949219 189.726562 268.949219 C 190.066406 268.949219 190.410156 268.941406 190.75 268.9375 C 191.089844 268.941406 191.433594 268.949219 191.773438 268.949219 C 195.796875 268.949219 219.308594 249.359375 219.308594 249.359375 C 219.308594 246.351562 236.320312 233.535156 233.574219 232.289062 " fill-opacity="1" fill-rule="nonzero"/></g><g clip-path="url(#f1e8e6e53d)"><path fill="#4aa8dd" d="M 197.613281 133.261719 C 197.613281 136.820312 197.453125 140.75 197.164062 144.695312 C 197.125 145.25 194.203125 147.574219 194.15625 148.132812 C 194.117188 148.613281 196.953125 147.324219 196.910156 147.800781 C 195.820312 159.90625 193.5625 171.230469 190.996094 171.230469 C 188.355469 171.230469 186.078125 160.027344 185.039062 147.960938 C 184.980469 147.292969 187.757812 149.5625 187.707031 148.886719 C 187.667969 148.386719 184.804688 144.949219 184.769531 144.449219 C 184.554688 141.109375 184.433594 137.785156 184.433594 134.683594 C 186.117188 134.605469 185.53125 134.605469 186.953125 133.769531 C 185.445312 132.507812 184.511719 130.464844 184.558594 129.566406 C 185.15625 118.300781 187.808594 115.203125 190.996094 115.203125 C 194.074219 115.203125 196.660156 118.101562 197.363281 128.488281 C 197.429688 129.472656 197.554688 131.75 193.574219 133.9375 C 194.992188 134.945312 196.25 134.605469 197.613281 133.261719 " fill-opacity="1" fill-rule="nonzero"/></g><path fill="#2c6792" d="M 190.996094 117.136719 C 191.132812 121.261719 191.222656 125.390625 191.269531 129.519531 C 191.300781 131.582031 191.308594 133.644531 191.328125 135.710938 L 191.347656 141.902344 L 191.328125 148.09375 C 191.308594 150.15625 191.304688 152.21875 191.269531 154.285156 C 191.222656 158.410156 191.132812 162.539062 190.996094 166.667969 C 190.859375 162.539062 190.765625 158.410156 190.71875 154.285156 C 190.6875 152.21875 190.679688 150.15625 190.660156 148.09375 L 190.644531 141.902344 L 190.664062 135.710938 C 190.679688 133.644531 190.6875 131.582031 190.722656 129.519531 C 190.769531 125.390625 190.859375 121.261719 190.996094 117.136719 " fill-opacity="1" fill-rule="nonzero"/><path fill="#b81491" d="M 213.511719 153.421875 C 210.480469 154.269531 207.265625 155.53125 204.441406 157.214844 C 204.019531 157.320312 199.378906 157.4375 199.074219 157.867188 C 198.792969 158.058594 202.621094 158.304688 202.289062 158.605469 C 198.175781 161.4375 195.546875 165.042969 194.039062 167.761719 C 192.480469 170.515625 192.046875 172.382812 191.125 172.527344 C 189.585938 172.957031 185.667969 166.488281 188.109375 157.535156 C 188.28125 157.007812 190.976562 158.195312 191.117188 157.769531 C 191.292969 157.398438 188.882812 155.328125 188.992188 154.992188 C 189.992188 152.578125 191.480469 150.1875 193.378906 148.089844 C 196.09375 148.125 195.144531 148.058594 197.949219 147.78125 C 196.449219 146.730469 196.269531 145.347656 197.019531 144.789062 C 201.675781 141.359375 206.707031 140.15625 210.945312 140.285156 C 215.230469 140.414062 218.726562 141.875 221.359375 143.765625 C 223.917969 145.597656 225.269531 147.628906 224.730469 149.007812 C 224.214844 150.460938 221.808594 151.257812 217.4375 152.273438 C 216.566406 152.644531 214.804688 152.476562 207.648438 150.632812 C 208.8125 151.917969 210.679688 152.578125 213.511719 153.421875 " fill-opacity="1" fill-rule="nonzero"/><path fill="#621248" d="M 219.300781 143.953125 C 215.179688 144.613281 211.34375 145.824219 207.921875 147.464844 C 206.222656 148.292969 204.605469 149.21875 203.136719 150.246094 C 201.652344 151.265625 200.296875 152.382812 199.082031 153.566406 C 197.847656 154.746094 196.757812 156 195.808594 157.296875 C 194.847656 158.597656 194.046875 159.941406 193.367188 161.308594 C 192.027344 164.042969 191.242188 166.871094 191.023438 169.59375 C 191.027344 166.902344 191.59375 164.078125 192.785156 161.308594 C 193.371094 159.925781 194.128906 158.558594 195.015625 157.230469 C 195.914062 155.902344 196.960938 154.617188 198.148438 153.398438 C 199.355469 152.179688 200.699219 151.03125 202.183594 149.972656 C 203.683594 148.921875 205.300781 147.960938 207.082031 147.132812 C 210.617188 145.464844 214.730469 144.3125 219.300781 143.953125 " fill-opacity="1" fill-rule="nonzero"/><path fill="#6ac52f" d="M 185.128906 143.285156 C 184.464844 146.371094 184.082031 149.816406 184.25 153.101562 C 184.148438 153.53125 182.089844 157.699219 182.328125 158.171875 C 182.363281 158.507812 184.367188 155.230469 184.476562 155.660156 C 185.058594 160.632812 187.011719 164.644531 188.710938 167.25 C 190.414062 169.914062 191.859375 171.167969 191.558594 172.054688 C 191.21875 173.621094 183.6875 174.085938 176.925781 167.75 C 176.542969 167.351562 178.84375 165.511719 178.535156 165.1875 C 178.289062 164.863281 175.34375 166.035156 175.097656 165.78125 C 173.433594 163.773438 172.015625 161.332031 171.046875 158.675781 C 172.34375 156.28125 171.84375 157.089844 172.90625 154.472656 C 171.277344 155.316406 169.972656 154.828125 169.832031 153.90625 C 168.976562 148.175781 170.257812 143.148438 172.34375 139.445312 C 174.453125 135.703125 177.367188 133.28125 180.265625 131.824219 C 183.070312 130.40625 185.496094 130.152344 186.460938 131.273438 C 187.5 132.40625 187.082031 134.914062 185.941406 139.269531 C 185.863281 140.214844 184.898438 141.699219 179.9375 147.195312 C 181.613281 146.757812 183.066406 145.40625 185.128906 143.285156 " fill-opacity="1" fill-rule="nonzero"/><path fill="#3a6b2b" d="M 179.472656 133.738281 C 178.132812 137.703125 177.414062 141.671875 177.269531 145.476562 C 177.207031 147.367188 177.273438 149.234375 177.496094 151.015625 C 177.703125 152.8125 178.054688 154.53125 178.535156 156.164062 C 179.003906 157.808594 179.601562 159.359375 180.304688 160.804688 C 181 162.261719 181.816406 163.601562 182.703125 164.839844 C 184.492188 167.300781 186.621094 169.316406 188.921875 170.777344 C 186.550781 169.519531 184.320312 167.703125 182.433594 165.355469 C 181.484375 164.195312 180.632812 162.882812 179.875 161.480469 C 179.121094 160.0625 178.476562 158.53125 177.953125 156.910156 C 177.4375 155.273438 177.050781 153.542969 176.808594 151.738281 C 176.582031 149.917969 176.484375 148.03125 176.585938 146.066406 C 176.761719 142.152344 177.660156 137.964844 179.472656 133.738281 " fill-opacity="1" fill-rule="nonzero"/><path fill="#481f14" d="M 212.277344 174.210938 C 225.445312 193.554688 214.214844 225.84375 207.378906 230.527344 C 204.769531 206.148438 194.960938 202.121094 187.507812 191.171875 C 180.054688 180.222656 179.554688 167.550781 186.394531 162.863281 C 193.234375 158.179688 204.824219 163.261719 212.277344 174.210938 " fill-opacity="1" fill-rule="nonzero"/><path fill="#9c481e" d="M 208.058594 194.773438 C 208.058594 207.058594 195.484375 217.019531 190.539062 217.019531 C 185.136719 217.019531 173.019531 207.058594 173.019531 194.773438 C 173.019531 182.488281 180.863281 172.527344 190.539062 172.527344 C 189.027344 175.488281 185.070312 182.808594 205.082031 187.984375 C 199.527344 176.792969 208.058594 186.558594 208.058594 194.773438 " fill-opacity="1" fill-rule="nonzero"/><path fill="#ffffff" d="M 194.9375 192.03125 C 194.9375 193.257812 192.96875 196.46875 190.539062 196.46875 C 188.113281 196.46875 186.144531 193.257812 186.144531 192.03125 C 186.144531 190.808594 188.113281 192.03125 190.539062 192.03125 C 192.96875 192.03125 194.9375 190.808594 194.9375 192.03125 " fill-opacity="1" fill-rule="nonzero"/><g clip-path="url(#e7a4114d3b)"><path fill="#9c481e" d="M 232.089844 160.335938 C 232.785156 161.539062 233.351562 162.703125 233.914062 163.878906 C 234.472656 165.054688 235.003906 166.234375 235.527344 167.414062 C 236.5625 169.777344 237.550781 172.15625 238.507812 174.546875 C 240.414062 179.332031 242.195312 184.167969 243.824219 189.097656 C 244.636719 191.566406 245.410156 194.058594 246.117188 196.59375 C 246.828125 199.136719 247.476562 201.714844 247.992188 204.4375 C 248.246094 205.800781 248.464844 207.199219 248.601562 208.707031 C 248.714844 210.21875 248.816406 211.839844 248.484375 213.882812 C 248.164062 215.761719 247.683594 217.261719 247.171875 218.710938 C 246.652344 220.148438 246.078125 221.484375 245.46875 222.785156 C 243.027344 227.960938 240.089844 232.589844 236.820312 237.039062 C 233.535156 241.46875 229.890625 245.660156 225.769531 249.554688 C 221.644531 253.4375 217.050781 257.054688 211.65625 260.03125 C 208.957031 261.511719 206.050781 262.824219 202.898438 263.835938 C 199.75 264.855469 196.335938 265.542969 192.753906 265.757812 L 192.753906 243.09375 C 195.710938 243.5 199.359375 243.023438 203.144531 241.679688 C 206.9375 240.355469 210.824219 238.273438 214.546875 235.75 C 218.277344 233.21875 221.867188 230.242188 225.203125 226.988281 C 228.527344 223.734375 231.65625 220.164062 234.183594 216.476562 C 234.804688 215.558594 235.394531 214.632812 235.890625 213.746094 C 236.390625 212.867188 236.808594 211.980469 237.039062 211.375 C 237.253906 210.9375 237.402344 209.996094 237.476562 208.972656 C 237.546875 207.9375 237.554688 206.804688 237.519531 205.648438 C 237.355469 200.972656 236.671875 196 235.863281 191.089844 C 235.039062 186.160156 234.039062 181.222656 232.910156 176.316406 C 232.34375 173.859375 231.746094 171.414062 231.097656 168.984375 C 230.773438 167.773438 230.4375 166.5625 230.082031 165.371094 C 229.726562 164.183594 229.347656 162.988281 228.929688 161.90625 L 232.089844 160.335938 " fill-opacity="1" fill-rule="nonzero"/></g><g clip-path="url(#ac95313a20)"><path fill="#9c481e" d="M 233.25 156.414062 C 227.777344 158.941406 227.4375 159.09375 228.929688 162.34375 C 230.421875 165.589844 236.070312 166.171875 241.542969 163.640625 C 243.140625 162.90625 231.605469 162.117188 236.046875 158.898438 C 239.066406 156.710938 248.746094 156.824219 248.757812 155.320312 C 248.769531 153.765625 238.726562 153.882812 233.25 156.414062 " fill-opacity="1" fill-rule="nonzero"/></g><path fill="#9c481e" d="M 151.164062 156.414062 C 156.640625 158.941406 156.980469 159.09375 155.488281 162.34375 C 153.996094 165.589844 148.347656 166.171875 142.871094 163.640625 C 141.273438 162.90625 152.808594 162.117188 148.371094 158.898438 C 145.351562 156.710938 135.671875 156.824219 135.660156 155.320312 C 135.644531 153.765625 145.691406 153.882812 151.164062 156.414062 " fill-opacity="1" fill-rule="nonzero"/><path fill="#9c481e" d="M 154.816406 161.90625 C 154.402344 162.988281 154.023438 164.183594 153.667969 165.371094 C 153.3125 166.5625 152.976562 167.773438 152.652344 168.984375 C 152.003906 171.414062 151.402344 173.859375 150.839844 176.316406 C 149.710938 181.222656 148.710938 186.160156 147.886719 191.089844 C 147.078125 196 146.394531 200.972656 146.230469 205.648438 C 146.195312 206.804688 146.199219 207.9375 146.273438 208.972656 C 146.34375 209.996094 146.492188 210.9375 146.707031 211.375 C 146.941406 211.980469 147.359375 212.867188 147.859375 213.746094 C 148.351562 214.632812 148.941406 215.558594 149.566406 216.476562 C 152.089844 220.164062 155.222656 223.734375 158.542969 226.988281 C 161.878906 230.242188 165.472656 233.21875 169.199219 235.75 C 172.921875 238.273438 176.8125 240.355469 180.601562 241.679688 C 184.390625 243.023438 188.039062 243.5 190.996094 243.09375 L 190.996094 265.757812 C 187.414062 265.542969 183.996094 264.855469 180.851562 263.835938 C 177.695312 262.824219 174.789062 261.511719 172.09375 260.03125 C 166.699219 257.054688 162.101562 253.4375 157.976562 249.554688 C 153.859375 245.660156 150.214844 241.46875 146.929688 237.039062 C 143.65625 232.589844 140.722656 227.960938 138.277344 222.785156 C 137.671875 221.484375 137.09375 220.148438 136.578125 218.710938 C 136.0625 217.261719 135.585938 215.761719 135.265625 213.882812 C 134.929688 211.839844 135.03125 210.21875 135.148438 208.707031 C 135.285156 207.199219 135.503906 205.800781 135.757812 204.4375 C 136.269531 201.714844 136.921875 199.136719 137.628906 196.59375 C 138.339844 194.058594 139.113281 191.566406 139.925781 189.097656 C 141.554688 184.167969 143.335938 179.332031 145.242188 174.546875 C 146.195312 172.15625 147.183594 169.777344 148.222656 167.414062 C 148.742188 166.234375 149.273438 165.054688 149.832031 163.878906 C 150.394531 162.703125 150.964844 161.539062 151.65625 160.335938 L 154.816406 161.90625 " fill-opacity="1" fill-rule="nonzero"/><path fill="#8a331b" d="M 199.367188 236.707031 C 193.480469 245.734375 187.597656 245.644531 181.714844 236.433594 C 187.539062 227.40625 187.539062 221.339844 181.714844 212.3125 C 187.597656 203.101562 193.480469 203.238281 199.367188 212.265625 C 193.421875 221.472656 193.421875 227.496094 199.367188 236.707031 " fill-opacity="1" fill-rule="nonzero"/><g clip-path="url(#7a5299f0b4)"><path fill="#6ac52f" d="M 201.039062 251.480469 C 196.1875 251.480469 192.074219 254.59375 190.539062 258.929688 C 189.003906 254.59375 184.890625 251.480469 180.039062 251.480469 C 173.882812 251.480469 168.890625 256.488281 168.890625 262.664062 C 168.890625 263.855469 169.078125 265 169.421875 266.074219 C 175.742188 267.84375 182.386719 268.835938 189.242188 268.949219 C 189.777344 268.164062 190.21875 267.3125 190.539062 266.402344 C 190.863281 267.3125 191.304688 268.164062 191.835938 268.949219 C 198.695312 268.835938 205.335938 267.84375 211.65625 266.074219 C 212 265 212.191406 263.855469 212.191406 262.664062 C 212.191406 256.488281 207.195312 251.480469 201.039062 251.480469 " fill-opacity="1" fill-rule="nonzero"/></g><path fill="#6ac52f" d="M 203.917969 234.34375 C 202.863281 234.34375 202.011719 235.199219 202.011719 236.253906 L 202.011719 255.296875 C 202.011719 256.351562 202.863281 257.203125 203.917969 257.203125 C 204.96875 257.203125 205.820312 256.351562 205.820312 255.296875 L 205.820312 236.253906 C 205.820312 235.199219 204.96875 234.34375 203.917969 234.34375 " fill-opacity="1" fill-rule="nonzero"/><path fill="#6ac52f" d="M 178.582031 234.34375 C 177.53125 234.34375 176.675781 235.199219 176.675781 236.253906 L 176.675781 255.296875 C 176.675781 256.351562 177.53125 257.203125 178.582031 257.203125 C 179.632812 257.203125 180.484375 256.351562 180.484375 255.296875 L 180.484375 236.253906 C 180.484375 235.199219 179.632812 234.34375 178.582031 234.34375 " fill-opacity="1" fill-rule="nonzero"/></svg>