<svg xmlns="http://www.w3.org/2000/svg" xmlns:xlink="http://www.w3.org/1999/xlink" width="512" zoomAndPan="magnify" viewBox="0 0 384 383.999986" height="512" preserveAspectRatio="xMidYMid meet" version="1.0"><defs><clipPath id="2c7a94233f"><path d="M 154 115.199219 L 168 115.199219 L 168 140 L 154 140 Z M 154 115.199219 " clip-rule="nonzero"/></clipPath><clipPath id="d2439560b7"><path d="M 159.320312 115.316406 C 159.320312 115.316406 163.664062 124.386719 159.363281 127.4375 C 159.363281 127.4375 159.855469 123.988281 157.625 121.824219 C 157.625 127.527344 154.222656 128.101562 154.222656 133.148438 C 154.222656 136.464844 156.726562 138.261719 156.886719 138.261719 L 160.511719 139.019531 C 160.511719 139.019531 167.0625 137.332031 167.0625 130.164062 C 167.058594 119.523438 159.320312 115.316406 159.320312 115.316406 Z M 159.320312 115.316406 " clip-rule="nonzero"/></clipPath><radialGradient gradientTransform="matrix(0.801985, 0, 0, 1.198015, 102.852664, 81.688687)" gradientUnits="userSpaceOnUse" r="10.469545" cx="71.466866" id="8f81a8c46b" cy="44.312843" fx="71.466866" fy="44.312843"><stop stop-opacity="1" stop-color="rgb(100%, 97.24884%, 72.938538%)" offset="0"/><stop stop-opacity="1" stop-color="rgb(99.996948%, 97.151184%, 72.698975%)" offset="0.00390625"/><stop stop-opacity="1" stop-color="rgb(99.989319%, 96.917725%, 72.125244%)" offset="0.0078125"/><stop stop-opacity="1" stop-color="rgb(99.983215%, 96.647644%, 71.458435%)" offset="0.0117188"/><stop stop-opacity="1" stop-color="rgb(99.975586%, 96.376038%, 70.7901%)" offset="0.015625"/><stop stop-opacity="1" stop-color="rgb(99.967957%, 96.105957%, 70.123291%)" offset="0.0195312"/><stop stop-opacity="1" stop-color="rgb(99.960327%, 95.834351%, 69.456482%)" offset="0.0234375"/><stop stop-opacity="1" stop-color="rgb(99.952698%, 95.562744%, 68.789673%)" offset="0.0273438"/><stop stop-opacity="1" stop-color="rgb(99.946594%, 95.292664%, 68.122864%)" offset="0.03125"/><stop stop-opacity="1" stop-color="rgb(99.938965%, 95.021057%, 67.456055%)" offset="0.0351562"/><stop stop-opacity="1" stop-color="rgb(99.931335%, 94.750977%, 66.78772%)" offset="0.0390625"/><stop stop-opacity="1" stop-color="rgb(99.923706%, 94.47937%, 66.120911%)" offset="0.0429688"/><stop stop-opacity="1" stop-color="rgb(99.917603%, 94.207764%, 65.454102%)" offset="0.046875"/><stop stop-opacity="1" stop-color="rgb(99.909973%, 93.937683%, 64.787292%)" offset="0.0507812"/><stop stop-opacity="1" stop-color="rgb(99.902344%, 93.666077%, 64.120483%)" offset="0.0546875"/><stop stop-opacity="1" stop-color="rgb(99.894714%, 93.39447%, 63.453674%)" offset="0.0585938"/><stop stop-opacity="1" stop-color="rgb(99.887085%, 93.12439%, 62.785339%)" offset="0.0625"/><stop stop-opacity="1" stop-color="rgb(99.880981%, 92.852783%, 62.11853%)" offset="0.0664062"/><stop stop-opacity="1" stop-color="rgb(99.873352%, 92.582703%, 61.451721%)" offset="0.0703125"/><stop stop-opacity="1" stop-color="rgb(99.865723%, 92.311096%, 60.784912%)" offset="0.0742188"/><stop stop-opacity="1" stop-color="rgb(99.858093%, 92.03949%, 60.118103%)" offset="0.078125"/><stop stop-opacity="1" stop-color="rgb(99.85199%, 91.769409%, 59.451294%)" offset="0.0820312"/><stop stop-opacity="1" stop-color="rgb(99.84436%, 91.497803%, 58.784485%)" offset="0.0859375"/><stop stop-opacity="1" stop-color="rgb(99.836731%, 91.227722%, 58.11615%)" offset="0.0898438"/><stop stop-opacity="1" stop-color="rgb(99.829102%, 90.956116%, 57.449341%)" offset="0.09375"/><stop stop-opacity="1" stop-color="rgb(99.821472%, 90.684509%, 56.782532%)" offset="0.0976562"/><stop stop-opacity="1" stop-color="rgb(99.815369%, 90.414429%, 56.115723%)" offset="0.101562"/><stop stop-opacity="1" stop-color="rgb(99.807739%, 90.142822%, 55.448914%)" offset="0.105469"/><stop stop-opacity="1" stop-color="rgb(99.80011%, 89.872742%, 54.782104%)" offset="0.109375"/><stop stop-opacity="1" stop-color="rgb(99.79248%, 89.601135%, 54.11377%)" offset="0.113281"/><stop stop-opacity="1" stop-color="rgb(99.786377%, 89.329529%, 53.44696%)" offset="0.117188"/><stop stop-opacity="1" stop-color="rgb(99.778748%, 89.059448%, 52.780151%)" offset="0.121094"/><stop stop-opacity="1" stop-color="rgb(99.771118%, 88.787842%, 52.113342%)" offset="0.125"/><stop stop-opacity="1" stop-color="rgb(99.763489%, 88.517761%, 51.446533%)" offset="0.128906"/><stop stop-opacity="1" stop-color="rgb(99.755859%, 88.246155%, 50.779724%)" offset="0.132812"/><stop stop-opacity="1" stop-color="rgb(99.749756%, 87.974548%, 50.111389%)" offset="0.136719"/><stop stop-opacity="1" stop-color="rgb(99.742126%, 87.704468%, 49.44458%)" offset="0.140625"/><stop stop-opacity="1" stop-color="rgb(99.734497%, 87.432861%, 48.777771%)" offset="0.144531"/><stop stop-opacity="1" stop-color="rgb(99.726868%, 87.162781%, 48.110962%)" offset="0.148438"/><stop stop-opacity="1" stop-color="rgb(99.720764%, 86.891174%, 47.444153%)" offset="0.152344"/><stop stop-opacity="1" stop-color="rgb(99.713135%, 86.619568%, 46.777344%)" offset="0.15625"/><stop stop-opacity="1" stop-color="rgb(99.705505%, 86.349487%, 46.109009%)" offset="0.160156"/><stop stop-opacity="1" stop-color="rgb(99.697876%, 86.077881%, 45.4422%)" offset="0.164062"/><stop stop-opacity="1" stop-color="rgb(99.690247%, 85.806274%, 44.775391%)" offset="0.167969"/><stop stop-opacity="1" stop-color="rgb(99.684143%, 85.536194%, 44.108582%)" offset="0.171875"/><stop stop-opacity="1" stop-color="rgb(99.676514%, 85.264587%, 43.441772%)" offset="0.175781"/><stop stop-opacity="1" stop-color="rgb(99.668884%, 84.994507%, 42.774963%)" offset="0.179688"/><stop stop-opacity="1" stop-color="rgb(99.661255%, 84.7229%, 42.108154%)" offset="0.183594"/><stop stop-opacity="1" stop-color="rgb(99.655151%, 84.451294%, 41.439819%)" offset="0.1875"/><stop stop-opacity="1" stop-color="rgb(99.647522%, 84.181213%, 40.77301%)" offset="0.191406"/><stop stop-opacity="1" stop-color="rgb(99.639893%, 83.909607%, 40.106201%)" offset="0.195312"/><stop stop-opacity="1" stop-color="rgb(99.632263%, 83.639526%, 39.439392%)" offset="0.199219"/><stop stop-opacity="1" stop-color="rgb(99.624634%, 83.36792%, 38.772583%)" offset="0.203125"/><stop stop-opacity="1" stop-color="rgb(99.61853%, 83.096313%, 38.105774%)" offset="0.207031"/><stop stop-opacity="1" stop-color="rgb(99.610901%, 82.824707%, 37.435913%)" offset="0.210938"/><stop stop-opacity="1" stop-color="rgb(99.598694%, 82.550049%, 36.752319%)" offset="0.214844"/><stop stop-opacity="1" stop-color="rgb(99.583435%, 82.273865%, 36.05957%)" offset="0.21875"/><stop stop-opacity="1" stop-color="rgb(99.569702%, 81.996155%, 35.366821%)" offset="0.222656"/><stop stop-opacity="1" stop-color="rgb(99.554443%, 81.718445%, 34.674072%)" offset="0.226562"/><stop stop-opacity="1" stop-color="rgb(99.539185%, 81.440735%, 33.981323%)" offset="0.230469"/><stop stop-opacity="1" stop-color="rgb(99.525452%, 81.163025%, 33.288574%)" offset="0.234375"/><stop stop-opacity="1" stop-color="rgb(99.510193%, 80.886841%, 32.595825%)" offset="0.238281"/><stop stop-opacity="1" stop-color="rgb(99.494934%, 80.609131%, 31.903076%)" offset="0.242188"/><stop stop-opacity="1" stop-color="rgb(99.481201%, 80.331421%, 31.210327%)" offset="0.246094"/><stop stop-opacity="1" stop-color="rgb(99.465942%, 80.053711%, 30.517578%)" offset="0.25"/><stop stop-opacity="1" stop-color="rgb(99.452209%, 79.777527%, 29.824829%)" offset="0.253906"/><stop stop-opacity="1" stop-color="rgb(99.436951%, 79.499817%, 29.130554%)" offset="0.257812"/><stop stop-opacity="1" stop-color="rgb(99.421692%, 79.222107%, 28.437805%)" offset="0.261719"/><stop stop-opacity="1" stop-color="rgb(99.407959%, 78.944397%, 27.745056%)" offset="0.265625"/><stop stop-opacity="1" stop-color="rgb(99.3927%, 78.668213%, 27.052307%)" offset="0.269531"/><stop stop-opacity="1" stop-color="rgb(99.377441%, 78.390503%, 26.359558%)" offset="0.273438"/><stop stop-opacity="1" stop-color="rgb(99.363708%, 78.112793%, 25.666809%)" offset="0.277344"/><stop stop-opacity="1" stop-color="rgb(99.34845%, 77.835083%, 24.97406%)" offset="0.28125"/><stop stop-opacity="1" stop-color="rgb(99.333191%, 77.558899%, 24.281311%)" offset="0.285156"/><stop stop-opacity="1" stop-color="rgb(99.319458%, 77.281189%, 23.588562%)" offset="0.289062"/><stop stop-opacity="1" stop-color="rgb(99.304199%, 77.003479%, 22.895813%)" offset="0.292969"/><stop stop-opacity="1" stop-color="rgb(99.290466%, 76.725769%, 22.201538%)" offset="0.296875"/><stop stop-opacity="1" stop-color="rgb(99.275208%, 76.449585%, 21.508789%)" offset="0.300781"/><stop stop-opacity="1" stop-color="rgb(99.259949%, 76.171875%, 20.81604%)" offset="0.304688"/><stop stop-opacity="1" stop-color="rgb(99.246216%, 75.894165%, 20.123291%)" offset="0.308594"/><stop stop-opacity="1" stop-color="rgb(99.230957%, 75.616455%, 19.430542%)" offset="0.3125"/><stop stop-opacity="1" stop-color="rgb(99.215698%, 75.340271%, 18.737793%)" offset="0.316406"/><stop stop-opacity="1" stop-color="rgb(99.201965%, 75.062561%, 18.045044%)" offset="0.320312"/><stop stop-opacity="1" stop-color="rgb(99.186707%, 74.784851%, 17.352295%)" offset="0.324219"/><stop stop-opacity="1" stop-color="rgb(99.172974%, 74.507141%, 16.659546%)" offset="0.328125"/><stop stop-opacity="1" stop-color="rgb(99.157715%, 74.229431%, 15.966797%)" offset="0.332031"/><stop stop-opacity="1" stop-color="rgb(99.142456%, 73.953247%, 15.274048%)" offset="0.335938"/><stop stop-opacity="1" stop-color="rgb(99.128723%, 73.675537%, 14.579773%)" offset="0.339844"/><stop stop-opacity="1" stop-color="rgb(99.113464%, 73.397827%, 13.887024%)" offset="0.34375"/><stop stop-opacity="1" stop-color="rgb(99.098206%, 73.120117%, 13.194275%)" offset="0.347656"/><stop stop-opacity="1" stop-color="rgb(99.084473%, 72.843933%, 12.501526%)" offset="0.351562"/><stop stop-opacity="1" stop-color="rgb(99.069214%, 72.566223%, 11.808777%)" offset="0.355469"/><stop stop-opacity="1" stop-color="rgb(99.055481%, 72.288513%, 11.116028%)" offset="0.359375"/><stop stop-opacity="1" stop-color="rgb(99.040222%, 72.010803%, 10.423279%)" offset="0.363281"/><stop stop-opacity="1" stop-color="rgb(99.024963%, 71.734619%, 9.73053%)" offset="0.367188"/><stop stop-opacity="1" stop-color="rgb(99.01123%, 71.456909%, 9.037781%)" offset="0.371094"/><stop stop-opacity="1" stop-color="rgb(98.995972%, 71.179199%, 8.345032%)" offset="0.375"/><stop stop-opacity="1" stop-color="rgb(98.980713%, 70.901489%, 7.650757%)" offset="0.378906"/><stop stop-opacity="1" stop-color="rgb(98.96698%, 70.625305%, 6.958008%)" offset="0.382812"/><stop stop-opacity="1" stop-color="rgb(98.951721%, 70.347595%, 6.265259%)" offset="0.386719"/><stop stop-opacity="1" stop-color="rgb(98.936462%, 70.069885%, 5.57251%)" offset="0.390625"/><stop stop-opacity="1" stop-color="rgb(98.922729%, 69.792175%, 4.879761%)" offset="0.394531"/><stop stop-opacity="1" stop-color="rgb(98.907471%, 69.515991%, 4.187012%)" offset="0.398438"/><stop stop-opacity="1" stop-color="rgb(98.893738%, 69.238281%, 3.494263%)" offset="0.402344"/><stop stop-opacity="1" stop-color="rgb(98.878479%, 68.960571%, 2.801514%)" offset="0.40625"/><stop stop-opacity="1" stop-color="rgb(98.86322%, 68.682861%, 2.108765%)" offset="0.410156"/><stop stop-opacity="1" stop-color="rgb(98.849487%, 68.406677%, 1.416016%)" offset="0.414062"/><stop stop-opacity="1" stop-color="rgb(98.834229%, 68.128967%, 0.723267%)" offset="0.417969"/><stop stop-opacity="1" stop-color="rgb(98.805237%, 67.82074%, 0.187683%)" offset="0.421875"/><stop stop-opacity="1" stop-color="rgb(98.747253%, 67.446899%, 0%)" offset="0.425781"/><stop stop-opacity="1" stop-color="rgb(98.670959%, 67.036438%, 0%)" offset="0.429688"/><stop stop-opacity="1" stop-color="rgb(98.596191%, 66.625977%, 0%)" offset="0.433594"/><stop stop-opacity="1" stop-color="rgb(98.521423%, 66.217041%, 0%)" offset="0.4375"/><stop stop-opacity="1" stop-color="rgb(98.445129%, 65.80658%, 0%)" offset="0.441406"/><stop stop-opacity="1" stop-color="rgb(98.370361%, 65.396118%, 0%)" offset="0.445312"/><stop stop-opacity="1" stop-color="rgb(98.294067%, 64.985657%, 0%)" offset="0.449219"/><stop stop-opacity="1" stop-color="rgb(98.219299%, 64.576721%, 0%)" offset="0.453125"/><stop stop-opacity="1" stop-color="rgb(98.144531%, 64.16626%, 0%)" offset="0.457031"/><stop stop-opacity="1" stop-color="rgb(98.068237%, 63.755798%, 0%)" offset="0.460938"/><stop stop-opacity="1" stop-color="rgb(97.993469%, 63.346863%, 0%)" offset="0.464844"/><stop stop-opacity="1" stop-color="rgb(97.917175%, 62.936401%, 0%)" offset="0.46875"/><stop stop-opacity="1" stop-color="rgb(97.842407%, 62.52594%, 0%)" offset="0.472656"/><stop stop-opacity="1" stop-color="rgb(97.767639%, 62.115479%, 0%)" offset="0.476562"/><stop stop-opacity="1" stop-color="rgb(97.691345%, 61.706543%, 0%)" offset="0.480469"/><stop stop-opacity="1" stop-color="rgb(97.616577%, 61.296082%, 0%)" offset="0.484375"/><stop stop-opacity="1" stop-color="rgb(97.541809%, 60.88562%, 0%)" offset="0.488281"/><stop stop-opacity="1" stop-color="rgb(97.465515%, 60.475159%, 0%)" offset="0.492188"/><stop stop-opacity="1" stop-color="rgb(97.390747%, 60.066223%, 0%)" offset="0.496094"/><stop stop-opacity="1" stop-color="rgb(97.314453%, 59.655762%, 0%)" offset="0.5"/><stop stop-opacity="1" stop-color="rgb(97.239685%, 59.2453%, 0%)" offset="0.503906"/><stop stop-opacity="1" stop-color="rgb(97.164917%, 58.836365%, 0%)" offset="0.507812"/><stop stop-opacity="1" stop-color="rgb(97.088623%, 58.425903%, 0%)" offset="0.511719"/><stop stop-opacity="1" stop-color="rgb(97.013855%, 58.015442%, 0%)" offset="0.515625"/><stop stop-opacity="1" stop-color="rgb(96.939087%, 57.60498%, 0%)" offset="0.519531"/><stop stop-opacity="1" stop-color="rgb(96.862793%, 57.196045%, 0%)" offset="0.523438"/><stop stop-opacity="1" stop-color="rgb(96.788025%, 56.785583%, 0%)" offset="0.527344"/><stop stop-opacity="1" stop-color="rgb(96.711731%, 56.375122%, 0%)" offset="0.53125"/><stop stop-opacity="1" stop-color="rgb(96.636963%, 55.964661%, 0%)" offset="0.535156"/><stop stop-opacity="1" stop-color="rgb(96.562195%, 55.555725%, 0%)" offset="0.539062"/><stop stop-opacity="1" stop-color="rgb(96.485901%, 55.145264%, 0%)" offset="0.542969"/><stop stop-opacity="1" stop-color="rgb(96.411133%, 54.734802%, 0%)" offset="0.546875"/><stop stop-opacity="1" stop-color="rgb(96.334839%, 54.324341%, 0%)" offset="0.550781"/><stop stop-opacity="1" stop-color="rgb(96.260071%, 53.915405%, 0%)" offset="0.554688"/><stop stop-opacity="1" stop-color="rgb(96.185303%, 53.504944%, 0%)" offset="0.558594"/><stop stop-opacity="1" stop-color="rgb(96.109009%, 53.094482%, 0%)" offset="0.5625"/><stop stop-opacity="1" stop-color="rgb(96.034241%, 52.685547%, 0%)" offset="0.566406"/><stop stop-opacity="1" stop-color="rgb(95.959473%, 52.275085%, 0%)" offset="0.570312"/><stop stop-opacity="1" stop-color="rgb(95.883179%, 51.864624%, 0%)" offset="0.574219"/><stop stop-opacity="1" stop-color="rgb(95.808411%, 51.454163%, 0%)" offset="0.578125"/><stop stop-opacity="1" stop-color="rgb(95.732117%, 51.045227%, 0%)" offset="0.582031"/><stop stop-opacity="1" stop-color="rgb(95.657349%, 50.634766%, 0%)" offset="0.585938"/><stop stop-opacity="1" stop-color="rgb(95.582581%, 50.224304%, 0%)" offset="0.589844"/><stop stop-opacity="1" stop-color="rgb(95.506287%, 49.813843%, 0%)" offset="0.59375"/><stop stop-opacity="1" stop-color="rgb(95.431519%, 49.404907%, 0%)" offset="0.597656"/><stop stop-opacity="1" stop-color="rgb(95.355225%, 48.994446%, 0%)" offset="0.601562"/><stop stop-opacity="1" stop-color="rgb(95.285034%, 48.605347%, 0%)" offset="0.605469"/><stop stop-opacity="1" stop-color="rgb(95.219421%, 48.251343%, 0%)" offset="0.609375"/><stop stop-opacity="1" stop-color="rgb(95.15686%, 47.911072%, 0%)" offset="0.613281"/><stop stop-opacity="1" stop-color="rgb(95.094299%, 47.570801%, 0%)" offset="0.617188"/><stop stop-opacity="1" stop-color="rgb(95.031738%, 47.23053%, 0%)" offset="0.621094"/><stop stop-opacity="1" stop-color="rgb(94.969177%, 46.890259%, 0%)" offset="0.625"/><stop stop-opacity="1" stop-color="rgb(94.906616%, 46.549988%, 0%)" offset="0.628906"/><stop stop-opacity="1" stop-color="rgb(94.844055%, 46.209717%, 0%)" offset="0.632812"/><stop stop-opacity="1" stop-color="rgb(94.781494%, 45.869446%, 0%)" offset="0.636719"/><stop stop-opacity="1" stop-color="rgb(94.718933%, 45.529175%, 0%)" offset="0.640625"/><stop stop-opacity="1" stop-color="rgb(94.656372%, 45.187378%, 0%)" offset="0.644531"/><stop stop-opacity="1" stop-color="rgb(94.593811%, 44.847107%, 0%)" offset="0.648438"/><stop stop-opacity="1" stop-color="rgb(94.53125%, 44.506836%, 0%)" offset="0.652344"/><stop stop-opacity="1" stop-color="rgb(94.468689%, 44.166565%, 0%)" offset="0.65625"/><stop stop-opacity="1" stop-color="rgb(94.406128%, 43.826294%, 0%)" offset="0.660156"/><stop stop-opacity="1" stop-color="rgb(94.343567%, 43.486023%, 0%)" offset="0.664062"/><stop stop-opacity="1" stop-color="rgb(94.281006%, 43.145752%, 0%)" offset="0.667969"/><stop stop-opacity="1" stop-color="rgb(94.216919%, 42.805481%, 0%)" offset="0.671875"/><stop stop-opacity="1" stop-color="rgb(94.154358%, 42.46521%, 0%)" offset="0.675781"/><stop stop-opacity="1" stop-color="rgb(94.091797%, 42.124939%, 0%)" offset="0.679688"/><stop stop-opacity="1" stop-color="rgb(94.029236%, 41.784668%, 0%)" offset="0.683594"/><stop stop-opacity="1" stop-color="rgb(93.966675%, 41.444397%, 0%)" offset="0.6875"/><stop stop-opacity="1" stop-color="rgb(93.904114%, 41.104126%, 0%)" offset="0.691406"/><stop stop-opacity="1" stop-color="rgb(93.841553%, 40.763855%, 0%)" offset="0.695312"/><stop stop-opacity="1" stop-color="rgb(93.778992%, 40.423584%, 0%)" offset="0.699219"/><stop stop-opacity="1" stop-color="rgb(93.716431%, 40.081787%, 0%)" offset="0.703125"/><stop stop-opacity="1" stop-color="rgb(93.65387%, 39.741516%, 0%)" offset="0.707031"/><stop stop-opacity="1" stop-color="rgb(93.591309%, 39.401245%, 0%)" offset="0.710938"/><stop stop-opacity="1" stop-color="rgb(93.528748%, 39.060974%, 0%)" offset="0.714844"/><stop stop-opacity="1" stop-color="rgb(93.466187%, 38.720703%, 0%)" offset="0.71875"/><stop stop-opacity="1" stop-color="rgb(93.403625%, 38.380432%, 0%)" offset="0.722656"/><stop stop-opacity="1" stop-color="rgb(93.341064%, 38.040161%, 0%)" offset="0.726562"/><stop stop-opacity="1" stop-color="rgb(93.278503%, 37.69989%, 0%)" offset="0.730469"/><stop stop-opacity="1" stop-color="rgb(93.215942%, 37.359619%, 0%)" offset="0.734375"/><stop stop-opacity="1" stop-color="rgb(93.153381%, 37.019348%, 0%)" offset="0.738281"/><stop stop-opacity="1" stop-color="rgb(93.09082%, 36.679077%, 0%)" offset="0.742188"/><stop stop-opacity="1" stop-color="rgb(93.028259%, 36.338806%, 0%)" offset="0.746094"/><stop stop-opacity="1" stop-color="rgb(92.965698%, 35.998535%, 0%)" offset="0.75"/><stop stop-opacity="1" stop-color="rgb(92.903137%, 35.658264%, 0%)" offset="0.753906"/><stop stop-opacity="1" stop-color="rgb(92.840576%, 35.317993%, 0%)" offset="0.757812"/><stop stop-opacity="1" stop-color="rgb(92.778015%, 34.977722%, 0%)" offset="0.761719"/><stop stop-opacity="1" stop-color="rgb(92.715454%, 34.635925%, 0%)" offset="0.765625"/><stop stop-opacity="1" stop-color="rgb(92.652893%, 34.295654%, 0%)" offset="0.769531"/><stop stop-opacity="1" stop-color="rgb(92.590332%, 33.955383%, 0%)" offset="0.773438"/><stop stop-opacity="1" stop-color="rgb(92.5354%, 33.650208%, 0%)" offset="0.777344"/><stop stop-opacity="1" stop-color="rgb(92.489624%, 33.38623%, 0%)" offset="0.78125"/><stop stop-opacity="1" stop-color="rgb(92.443848%, 33.128357%, 0%)" offset="0.785156"/><stop stop-opacity="1" stop-color="rgb(92.399597%, 32.872009%, 0%)" offset="0.789062"/><stop stop-opacity="1" stop-color="rgb(92.355347%, 32.614136%, 0%)" offset="0.792969"/><stop stop-opacity="1" stop-color="rgb(92.30957%, 32.357788%, 0%)" offset="0.796875"/><stop stop-opacity="1" stop-color="rgb(92.26532%, 32.099915%, 0%)" offset="0.800781"/><stop stop-opacity="1" stop-color="rgb(92.221069%, 31.843567%, 0%)" offset="0.804688"/><stop stop-opacity="1" stop-color="rgb(92.175293%, 31.585693%, 0%)" offset="0.808594"/><stop stop-opacity="1" stop-color="rgb(92.131042%, 31.329346%, 0%)" offset="0.8125"/><stop stop-opacity="1" stop-color="rgb(92.086792%, 31.071472%, 0%)" offset="0.816406"/><stop stop-opacity="1" stop-color="rgb(92.041016%, 30.815125%, 0%)" offset="0.820312"/><stop stop-opacity="1" stop-color="rgb(91.996765%, 30.557251%, 0%)" offset="0.824219"/><stop stop-opacity="1" stop-color="rgb(91.952515%, 30.299377%, 0%)" offset="0.828125"/><stop stop-opacity="1" stop-color="rgb(91.906738%, 30.04303%, 0%)" offset="0.832031"/><stop stop-opacity="1" stop-color="rgb(91.862488%, 29.785156%, 0%)" offset="0.835938"/><stop stop-opacity="1" stop-color="rgb(91.818237%, 29.528809%, 0%)" offset="0.839844"/><stop stop-opacity="1" stop-color="rgb(91.772461%, 29.270935%, 0%)" offset="0.84375"/><stop stop-opacity="1" stop-color="rgb(91.72821%, 29.014587%, 0%)" offset="0.847656"/><stop stop-opacity="1" stop-color="rgb(91.68396%, 28.756714%, 0%)" offset="0.851562"/><stop stop-opacity="1" stop-color="rgb(91.638184%, 28.500366%, 0%)" offset="0.855469"/><stop stop-opacity="1" stop-color="rgb(91.593933%, 28.242493%, 0%)" offset="0.859375"/><stop stop-opacity="1" stop-color="rgb(91.549683%, 27.984619%, 0%)" offset="0.863281"/><stop stop-opacity="1" stop-color="rgb(91.503906%, 27.728271%, 0%)" offset="0.867188"/><stop stop-opacity="1" stop-color="rgb(91.459656%, 27.470398%, 0%)" offset="0.871094"/><stop stop-opacity="1" stop-color="rgb(91.415405%, 27.21405%, 0%)" offset="0.875"/><stop stop-opacity="1" stop-color="rgb(91.369629%, 26.956177%, 0%)" offset="0.878906"/><stop stop-opacity="1" stop-color="rgb(91.325378%, 26.699829%, 0%)" offset="0.882812"/><stop stop-opacity="1" stop-color="rgb(91.281128%, 26.441956%, 0%)" offset="0.886719"/><stop stop-opacity="1" stop-color="rgb(91.235352%, 26.185608%, 0%)" offset="0.890625"/><stop stop-opacity="1" stop-color="rgb(91.191101%, 25.927734%, 0%)" offset="0.894531"/><stop stop-opacity="1" stop-color="rgb(91.146851%, 25.671387%, 0%)" offset="0.898438"/><stop stop-opacity="1" stop-color="rgb(91.101074%, 25.413513%, 0%)" offset="0.902344"/><stop stop-opacity="1" stop-color="rgb(91.056824%, 25.15564%, 0%)" offset="0.90625"/><stop stop-opacity="1" stop-color="rgb(91.012573%, 24.899292%, 0%)" offset="0.910156"/><stop stop-opacity="1" stop-color="rgb(90.953064%, 24.597168%, 0%)" offset="0.914062"/><stop stop-opacity="1" stop-color="rgb(90.879822%, 24.261475%, 0%)" offset="0.921875"/><stop stop-opacity="1" stop-color="rgb(90.808105%, 23.936462%, 0%)" offset="0.929688"/><stop stop-opacity="1" stop-color="rgb(90.736389%, 23.61145%, 0%)" offset="0.9375"/><stop stop-opacity="1" stop-color="rgb(90.682983%, 23.368835%, 0%)" offset="0.945312"/><stop stop-opacity="1" stop-color="rgb(90.646362%, 23.207092%, 0%)" offset="0.949219"/><stop stop-opacity="1" stop-color="rgb(90.611267%, 23.043823%, 0%)" offset="0.953125"/><stop stop-opacity="1" stop-color="rgb(90.556335%, 22.801208%, 0%)" offset="0.957031"/><stop stop-opacity="1" stop-color="rgb(90.484619%, 22.476196%, 0%)" offset="0.964844"/><stop stop-opacity="1" stop-color="rgb(90.431213%, 22.233582%, 0%)" offset="0.972656"/><stop stop-opacity="1" stop-color="rgb(90.396118%, 22.071838%, 0%)" offset="0.976562"/><stop stop-opacity="1" stop-color="rgb(90.341187%, 21.827698%, 0%)" offset="0.980469"/><stop stop-opacity="1" stop-color="rgb(90.287781%, 21.585083%, 0%)" offset="0.988281"/><stop stop-opacity="1" stop-color="rgb(90.234375%, 21.340942%, 0%)" offset="0.992188"/><stop stop-opacity="1" stop-color="rgb(90.19928%, 21.179199%, 0%)" offset="1"/></radialGradient><clipPath id="2187b5dca1"><path d="M 150 137 L 234.511719 137 L 234.511719 268.949219 L 150 268.949219 Z M 150 137 " clip-rule="nonzero"/></clipPath><clipPath id="c8baf98c9c"><path d="M 216.085938 251.765625 L 212.1875 239.496094 L 213.363281 235.289062 L 211.253906 229.378906 L 211.578125 227.757812 L 211.335938 225.695312 L 213.320312 222.214844 L 212.550781 218.125 L 234.183594 216.417969 L 212.792969 214.84375 C 212.792969 214.84375 212.558594 213.148438 212.269531 212.296875 L 228.664062 204.800781 L 210.511719 208.816406 C 210.0625 208.171875 209.53125 207.515625 208.972656 206.953125 L 220.085938 192.789062 L 205.339844 204.328125 C 204.328125 203.816406 203.242188 203.425781 202.101562 203.175781 L 199.035156 186.738281 L 196.605469 203.0625 C 195.292969 203.296875 194.042969 203.714844 192.886719 204.289062 L 178.152344 192.785156 L 189.222656 206.921875 C 188.703125 207.445312 188.222656 208.007812 187.789062 208.609375 L 172.820312 205.203125 C 172.820312 205.203125 172.902344 202.933594 172.574219 199.210938 C 172.25 195.488281 169.8125 186.175781 169.8125 186.175781 L 168.675781 172.542969 C 169.113281 171.464844 169.707031 168.492188 169.707031 168.492188 L 169.707031 162.121094 C 169.707031 162.121094 168.730469 160.339844 168.082031 159.421875 C 167.433594 158.503906 166.78125 156.023438 166.78125 156.023438 L 165.324219 154.835938 L 165.757812 150.785156 L 166.625 150.785156 L 166.625 147.003906 L 170.84375 147.003906 L 170.84375 137.71875 L 150.28125 137.71875 L 150.417969 146.933594 L 154.921875 146.933594 L 154.921875 149.488281 L 153.910156 148.636719 L 152.328125 150.175781 L 154.722656 154.710938 L 153.628906 156.734375 L 154.847656 158.109375 L 154.117188 159.851562 L 155.535156 161.433594 L 154.199219 163.539062 C 154.199219 163.539062 155.375 167.46875 155.78125 168.640625 C 156.1875 169.8125 158.09375 171.273438 158.09375 171.273438 L 158.09375 179.253906 L 159.109375 179.253906 C 159.109375 179.253906 158.214844 195.285156 158.296875 200.226562 C 158.378906 205.164062 160.648438 209.296875 160.648438 209.296875 L 161.257812 216.867188 C 161.257812 216.867188 153.953125 228.164062 153.589844 235.65625 C 153.222656 243.144531 157.363281 245.738281 157.363281 245.738281 L 159.636719 246.21875 L 159.917969 248.246094 L 158.171875 252.011719 L 163.410156 258.773438 L 163.246094 269.21875 L 227.535156 269.21875 L 224 255.976562 Z M 172.6875 211.738281 L 172.796875 206.71875 L 185.765625 211.785156 C 185.367188 212.789062 185.023438 214.441406 185.023438 214.441406 L 176.6875 215.304688 Z M 184.753906 233.601562 C 184.753906 233.601562 179.34375 227.933594 179.179688 227.394531 C 179.019531 226.855469 179.234375 221.078125 179.234375 221.078125 L 178.097656 219.566406 L 177.773438 217.726562 L 185.296875 218.164062 L 184.96875 221.1875 L 186.753906 224.859375 L 186.160156 227.019531 L 186.972656 229.449219 Z M 184.753906 233.601562 " clip-rule="nonzero"/></clipPath><linearGradient x1="23.025999" gradientTransform="matrix(3.88184, 0, 0, 3.872796, 102.852664, 99.321526)" y1="9.915004" x2="23.025999" gradientUnits="userSpaceOnUse" y2="43.800003" id="642f1d8dfc"><stop stop-opacity="1" stop-color="rgb(46.205139%, 86.206055%, 83.244324%)" offset="0"/><stop stop-opacity="1" stop-color="rgb(46.064758%, 86.065674%, 83.122253%)" offset="0.015625"/><stop stop-opacity="1" stop-color="rgb(45.783997%, 85.784912%, 82.876587%)" offset="0.03125"/><stop stop-opacity="1" stop-color="rgb(45.504761%, 85.50415%, 82.632446%)" offset="0.046875"/><stop stop-opacity="1" stop-color="rgb(45.223999%, 85.223389%, 82.38678%)" offset="0.0625"/><stop stop-opacity="1" stop-color="rgb(44.943237%, 84.944153%, 82.142639%)" offset="0.078125"/><stop stop-opacity="1" stop-color="rgb(44.664001%, 84.663391%, 81.896973%)" offset="0.09375"/><stop stop-opacity="1" stop-color="rgb(44.38324%, 84.382629%, 81.652832%)" offset="0.109375"/><stop stop-opacity="1" stop-color="rgb(44.102478%, 84.101868%, 81.408691%)" offset="0.125"/><stop stop-opacity="1" stop-color="rgb(43.821716%, 83.822632%, 81.163025%)" offset="0.140625"/><stop stop-opacity="1" stop-color="rgb(43.54248%, 83.54187%, 80.918884%)" offset="0.15625"/><stop stop-opacity="1" stop-color="rgb(43.261719%, 83.261108%, 80.673218%)" offset="0.171875"/><stop stop-opacity="1" stop-color="rgb(42.980957%, 82.981873%, 80.429077%)" offset="0.1875"/><stop stop-opacity="1" stop-color="rgb(42.700195%, 82.701111%, 80.183411%)" offset="0.203125"/><stop stop-opacity="1" stop-color="rgb(42.420959%, 82.420349%, 79.93927%)" offset="0.21875"/><stop stop-opacity="1" stop-color="rgb(42.140198%, 82.139587%, 79.695129%)" offset="0.234375"/><stop stop-opacity="1" stop-color="rgb(41.859436%, 81.860352%, 79.449463%)" offset="0.25"/><stop stop-opacity="1" stop-color="rgb(41.5802%, 81.57959%, 79.205322%)" offset="0.265625"/><stop stop-opacity="1" stop-color="rgb(41.299438%, 81.298828%, 78.959656%)" offset="0.28125"/><stop stop-opacity="1" stop-color="rgb(41.018677%, 81.019592%, 78.715515%)" offset="0.296875"/><stop stop-opacity="1" stop-color="rgb(40.737915%, 80.738831%, 78.471375%)" offset="0.3125"/><stop stop-opacity="1" stop-color="rgb(40.458679%, 80.458069%, 78.225708%)" offset="0.328125"/><stop stop-opacity="1" stop-color="rgb(40.177917%, 80.177307%, 77.981567%)" offset="0.34375"/><stop stop-opacity="1" stop-color="rgb(39.897156%, 79.898071%, 77.735901%)" offset="0.359375"/><stop stop-opacity="1" stop-color="rgb(39.61792%, 79.61731%, 77.49176%)" offset="0.375"/><stop stop-opacity="1" stop-color="rgb(39.337158%, 79.336548%, 77.246094%)" offset="0.390625"/><stop stop-opacity="1" stop-color="rgb(39.056396%, 79.057312%, 77.001953%)" offset="0.40625"/><stop stop-opacity="1" stop-color="rgb(38.775635%, 78.77655%, 76.757812%)" offset="0.421875"/><stop stop-opacity="1" stop-color="rgb(38.496399%, 78.495789%, 76.512146%)" offset="0.4375"/><stop stop-opacity="1" stop-color="rgb(38.215637%, 78.215027%, 76.268005%)" offset="0.453125"/><stop stop-opacity="1" stop-color="rgb(37.934875%, 77.935791%, 76.022339%)" offset="0.46875"/><stop stop-opacity="1" stop-color="rgb(37.65564%, 77.655029%, 75.778198%)" offset="0.484375"/><stop stop-opacity="1" stop-color="rgb(37.374878%, 77.374268%, 75.532532%)" offset="0.5"/><stop stop-opacity="1" stop-color="rgb(37.094116%, 77.095032%, 75.288391%)" offset="0.515625"/><stop stop-opacity="1" stop-color="rgb(36.813354%, 76.81427%, 75.04425%)" offset="0.53125"/><stop stop-opacity="1" stop-color="rgb(36.534119%, 76.533508%, 74.798584%)" offset="0.546875"/><stop stop-opacity="1" stop-color="rgb(36.253357%, 76.252747%, 74.554443%)" offset="0.5625"/><stop stop-opacity="1" stop-color="rgb(35.972595%, 75.973511%, 74.308777%)" offset="0.578125"/><stop stop-opacity="1" stop-color="rgb(35.693359%, 75.692749%, 74.064636%)" offset="0.59375"/><stop stop-opacity="1" stop-color="rgb(35.412598%, 75.411987%, 73.81897%)" offset="0.609375"/><stop stop-opacity="1" stop-color="rgb(35.131836%, 75.131226%, 73.574829%)" offset="0.625"/><stop stop-opacity="1" stop-color="rgb(34.851074%, 74.85199%, 73.330688%)" offset="0.640625"/><stop stop-opacity="1" stop-color="rgb(34.571838%, 74.571228%, 73.085022%)" offset="0.65625"/><stop stop-opacity="1" stop-color="rgb(34.291077%, 74.290466%, 72.840881%)" offset="0.671875"/><stop stop-opacity="1" stop-color="rgb(34.010315%, 74.01123%, 72.595215%)" offset="0.6875"/><stop stop-opacity="1" stop-color="rgb(33.729553%, 73.730469%, 72.351074%)" offset="0.703125"/><stop stop-opacity="1" stop-color="rgb(33.450317%, 73.449707%, 72.105408%)" offset="0.71875"/><stop stop-opacity="1" stop-color="rgb(33.169556%, 73.168945%, 71.861267%)" offset="0.734375"/><stop stop-opacity="1" stop-color="rgb(32.888794%, 72.889709%, 71.617126%)" offset="0.75"/><stop stop-opacity="1" stop-color="rgb(32.609558%, 72.608948%, 71.37146%)" offset="0.765625"/><stop stop-opacity="1" stop-color="rgb(32.328796%, 72.328186%, 71.127319%)" offset="0.78125"/><stop stop-opacity="1" stop-color="rgb(32.141113%, 72.142029%, 70.959473%)" offset="0.8125"/><stop stop-opacity="1" stop-color="rgb(32.026672%, 72.026062%, 70.848083%)" offset="0.875"/><stop stop-opacity="1" stop-color="rgb(31.82373%, 71.82312%, 70.646667%)" offset="1"/></linearGradient><clipPath id="ba131987fb"><path d="M 204 260 L 212 260 L 212 268.949219 L 204 268.949219 Z M 204 260 " clip-rule="nonzero"/></clipPath><clipPath id="6b0b4e1af8"><path d="M 191 254 L 207 254 L 207 268.949219 L 191 268.949219 Z M 191 254 " clip-rule="nonzero"/></clipPath><clipPath id="7f39ac367f"><path d="M 177 205 L 234 205 L 234 268.949219 L 177 268.949219 Z M 177 205 " clip-rule="nonzero"/></clipPath><clipPath id="3185e4db4a"><path d="M 151 149 L 179 149 L 179 268.949219 L 151 268.949219 Z M 151 149 " clip-rule="nonzero"/></clipPath></defs><g clip-path="url(#2c7a94233f)"><g clip-path="url(#d2439560b7)"><path fill="url(#8f81a8c46b)" d="M 154.222656 115.316406 L 154.222656 139.019531 L 167.0625 139.019531 L 167.0625 115.316406 Z M 154.222656 115.316406 " fill-rule="nonzero"/></g></g><g clip-path="url(#2187b5dca1)"><g clip-path="url(#c8baf98c9c)"><path fill="url(#642f1d8dfc)" d="M 150.28125 137.71875 L 150.28125 268.949219 L 234.183594 268.949219 L 234.183594 137.71875 Z M 150.28125 137.71875 " fill-rule="nonzero"/></g></g><path fill="#006064" d="M 198.90625 230.746094 L 196.339844 230.746094 L 196.339844 231.261719 L 197.136719 232.023438 L 199.109375 231.660156 L 201.0625 232.023438 L 201.859375 231.261719 L 201.859375 230.746094 Z M 198.90625 230.746094 " fill-opacity="1" fill-rule="nonzero"/><path fill="#006064" d="M 154.921875 146.9375 L 166.628906 147.007812 L 166.617188 148.804688 L 154.921875 148.765625 Z M 154.921875 146.9375 " fill-opacity="1" fill-rule="nonzero"/><g clip-path="url(#ba131987fb)"><path fill="#006064" d="M 211.429688 260.488281 C 207.984375 263.058594 205.410156 267.351562 204.398438 269.222656 L 208.988281 269.222656 C 209.664062 266.113281 211.429688 260.488281 211.429688 260.488281 Z M 211.429688 260.488281 " fill-opacity="1" fill-rule="nonzero"/></g><g clip-path="url(#6b0b4e1af8)"><path fill="#006064" d="M 191.90625 269.222656 L 197.816406 269.222656 C 199.765625 263.867188 206.019531 254.28125 206.019531 254.28125 C 199.007812 257.601562 193.738281 265.988281 191.90625 269.222656 Z M 191.90625 269.222656 " fill-opacity="1" fill-rule="nonzero"/></g><g clip-path="url(#7f39ac367f)"><path fill="#006064" d="M 216.085938 251.765625 L 212.1875 239.496094 L 213.363281 235.289062 L 211.253906 229.378906 L 211.578125 227.757812 L 211.335938 225.695312 L 213.320312 222.214844 L 212.550781 218.125 L 233.949219 216.4375 L 212.867188 216.203125 L 211.960938 216.230469 C 211.175781 212.40625 208.457031 205.164062 199.488281 205.164062 C 188.910156 205.164062 185.832031 215.828125 185.832031 215.828125 L 177.390625 216.273438 L 177.84375 217.730469 L 185.292969 218.160156 L 184.964844 221.183594 L 186.75 224.855469 L 186.15625 227.015625 L 186.96875 229.445312 L 184.746094 233.597656 C 184.746094 233.597656 184.714844 233.558594 184.710938 233.554688 L 184.695312 233.597656 L 194.003906 245.75 L 199.628906 249.582031 C 199.628906 249.582031 187.4375 255.921875 178.546875 269.222656 L 186.253906 269.222656 C 188.003906 266.25 194.570312 255.753906 202.609375 250.824219 L 218.195312 257.46875 L 219.132812 269.222656 L 227.53125 269.222656 L 223.996094 255.980469 Z M 199.089844 234.769531 C 199.089844 234.769531 193.347656 234.863281 192.398438 233.398438 C 191.453125 231.933594 189.589844 227.636719 189.589844 226.964844 C 189.589844 225.683594 191.851562 223.152344 191.851562 223.152344 L 195.214844 223.214844 L 195.945312 222.820312 L 196.800781 224.589844 L 196.894531 226.269531 L 196.253906 226.9375 L 196.4375 227.578125 L 198.269531 228.183594 L 198.269531 228.523438 L 196.832031 228.554688 L 195.578125 229.835938 L 195.855469 230.261719 L 196.800781 229.773438 L 201.40625 229.773438 L 202.351562 230.261719 L 202.628906 229.835938 L 201.375 228.554688 L 199.9375 228.523438 L 199.9375 228.183594 L 201.660156 227.578125 L 201.84375 226.9375 L 201.203125 226.269531 L 201.296875 224.589844 L 202.148438 222.820312 L 202.882812 223.214844 L 206.359375 223.152344 C 206.359375 223.152344 208.621094 225.683594 208.621094 226.964844 C 208.621094 227.636719 206.757812 231.933594 205.8125 233.398438 C 204.855469 234.859375 199.089844 234.769531 199.089844 234.769531 Z M 191.722656 220.011719 C 191.722656 220.011719 192.015625 218.246094 195.046875 216.949219 C 197.769531 215.785156 199.273438 214.039062 199.273438 214.039062 C 199.273438 214.039062 200.773438 215.785156 203.5 216.949219 C 206.53125 218.246094 206.472656 220.011719 206.472656 220.011719 C 206.472656 220.011719 205.125 219.144531 204.917969 219.070312 C 204.429688 218.886719 201.007812 218.675781 200.792969 219.4375 C 200.574219 220.191406 200.027344 226.695312 200.027344 226.695312 L 198.175781 226.695312 C 198.175781 226.695312 197.628906 220.191406 197.410156 219.4375 C 197.191406 218.679688 193.773438 218.886719 193.285156 219.070312 C 193.074219 219.144531 191.722656 220.011719 191.722656 220.011719 Z M 200.230469 245.316406 C 200.230469 245.316406 205.804688 238.894531 206.777344 236.628906 C 206.777344 236.628906 206.832031 244.671875 206.503906 246.128906 C 206.503906 246.128906 208.183594 247.636719 208.726562 249.3125 C 208.726562 249.3125 202.613281 247.910156 200.230469 245.316406 Z M 210.566406 222.289062 C 210.484375 220.390625 206.058594 216.582031 202.933594 215.164062 C 199.808594 213.746094 199.160156 212.167969 199.160156 212.167969 C 199.160156 212.167969 198.511719 213.746094 195.386719 215.164062 C 192.261719 216.582031 187.835938 220.390625 187.757812 222.289062 C 187.757812 222.289062 187.675781 209.414062 199.160156 209.414062 C 210.785156 209.417969 210.566406 222.289062 210.566406 222.289062 Z M 210.566406 222.289062 " fill-opacity="1" fill-rule="nonzero"/></g><g clip-path="url(#3185e4db4a)"><path fill="#006064" d="M 168.789062 260.703125 C 177.609375 253.46875 178.582031 241.808594 178.582031 241.808594 C 176.3125 245.699219 171.007812 248.933594 171.007812 248.933594 C 171.007812 248.933594 173.710938 243.699219 174.792969 239.757812 C 175.878906 235.8125 174.523438 233.113281 174.523438 233.113281 C 168.300781 240.1875 160.507812 239.269531 160.507812 239.269531 C 168.570312 236.246094 173.007812 224.476562 173.820312 220.964844 C 174.46875 218.167969 173.882812 214.109375 173.613281 212.5625 L 172.683594 211.734375 L 172.6875 211.464844 L 172.683594 211.460938 C 173.277344 220.371094 168.027344 224.472656 168.027344 224.472656 C 166.945312 222.417969 166.890625 216.910156 166.890625 216.910156 L 169.003906 213.238281 L 165.757812 212.320312 L 162.996094 186.042969 L 166.570312 173.738281 C 166.570312 173.738281 166.816406 171.257812 166.144531 170.007812 C 165.472656 168.757812 165.015625 168.300781 164.921875 165.890625 C 164.832031 163.480469 165.230469 161.5625 165.230469 161.5625 L 164.464844 159.121094 C 164.464844 159.121094 163.945312 158.175781 162.96875 157.050781 C 161.988281 155.921875 162.296875 153.085938 162.296875 153.085938 L 163.242188 152.570312 L 164.679688 154.671875 L 165.324219 154.828125 L 165.757812 150.777344 L 155.621094 150.652344 L 156.734375 153.875 L 155.113281 153.875 C 155.113281 153.875 153.984375 151.496094 153.585938 150.339844 C 153.414062 149.839844 153.3125 149.507812 153.242188 149.269531 L 152.441406 150.046875 L 151.953125 150.53125 L 153.789062 154.699219 L 152.808594 156.511719 L 152.761719 156.65625 L 153.84375 158.007812 L 153.839844 158.019531 L 153.914062 158.097656 L 153.425781 159.261719 L 153.25 159.789062 L 154.03125 160.785156 L 154.601562 161.421875 L 154.566406 161.472656 L 154.601562 161.515625 L 153.277344 163.574219 C 153.304688 163.664062 153.433594 164.09375 153.621094 164.707031 C 153.976562 165.769531 154.492188 167.339844 154.71875 168.242188 C 154.765625 168.382812 154.8125 168.523438 154.847656 168.628906 C 155.253906 169.800781 158.082031 171.261719 158.082031 171.261719 L 158.082031 171.417969 C 158.09375 171.425781 158.121094 171.449219 158.121094 171.449219 C 158.121094 171.449219 158.175781 170.421875 158.175781 168.476562 C 158.175781 166.535156 163.316406 164.375 163.316406 164.375 L 162.667969 179.277344 L 159.09375 179.277344 C 159.085938 179.449219 158.9375 182.066406 158.773438 185.472656 C 158.605469 189.503906 158.402344 194.609375 158.292969 198.109375 C 158.28125 198.921875 158.273438 199.640625 158.285156 200.207031 C 158.3125 201.972656 158.628906 203.625 159.011719 205.03125 C 159.539062 206.859375 160.210938 208.472656 160.210938 208.472656 L 160.507812 209.03125 C 160.585938 209.179688 160.636719 209.277344 160.636719 209.277344 L 161.019531 213.992188 L 161.246094 216.847656 C 161.246094 216.847656 153.902344 227.128906 153.460938 236.394531 C 153.464844 243.167969 157.355469 245.71875 157.355469 245.71875 L 159.628906 246.203125 L 159.8125 247.496094 L 159.910156 248.226562 L 158.164062 251.992188 L 163.402344 258.753906 L 163.238281 269.199219 L 172.574219 269.199219 C 172.726562 267.5 174.011719 265.1875 176.015625 262.003906 C 178.664062 257.792969 178.140625 254.570312 178.140625 254.570312 C 175.335938 259.339844 168.789062 260.703125 168.789062 260.703125 Z M 154.535156 156.207031 L 155.175781 154.894531 C 155.175781 154.894531 156.335938 154.957031 157.070312 154.746094 C 157.804688 154.53125 159.269531 153.832031 159.269531 153.832031 L 160.644531 153.980469 L 160.523438 155.691406 C 160.523438 155.691406 158.171875 156.636719 157.5 156.636719 C 156.828125 156.636719 154.992188 156.878906 154.992188 156.878906 Z M 160.375 163.765625 L 156.617188 163.765625 L 156.035156 164.464844 L 156.492188 164.953125 L 157.683594 164.953125 L 156.855469 167.210938 L 156.761719 168.886719 L 155.878906 167.148438 L 154.78125 163.519531 L 156.367188 161.265625 L 160.125 161.359375 L 161.253906 162.304688 Z M 161.472656 160.835938 C 161.472656 160.835938 158.449219 159.859375 158.355469 159.890625 C 158.261719 159.921875 155.363281 159.710938 155.363281 159.710938 L 156.15625 158.09375 L 159.519531 157.820312 L 162.242188 159.285156 Z M 161.472656 160.835938 " fill-opacity="1" fill-rule="nonzero"/></g><path fill="#006064" d="M 202.105469 203.175781 L 199.039062 186.738281 L 196.609375 203.0625 C 196.609375 203.0625 197.972656 202.8125 199.316406 202.8125 C 200.851562 202.8125 202.105469 203.175781 202.105469 203.175781 Z M 202.105469 203.175781 " fill-opacity="1" fill-rule="nonzero"/><path fill="#006064" d="M 212.273438 212.296875 L 228.667969 204.800781 L 211.5 210.507812 C 211.785156 210.992188 212.273438 212.296875 212.273438 212.296875 Z M 212.273438 212.296875 " fill-opacity="1" fill-rule="nonzero"/><path fill="#006064" d="M 172.796875 206.71875 L 185.765625 211.785156 C 185.765625 211.785156 185.988281 211.023438 186.546875 210.121094 L 172.78125 205.839844 Z M 172.796875 206.71875 " fill-opacity="1" fill-rule="nonzero"/><path fill="#006064" d="M 208.976562 206.953125 L 220.089844 192.789062 L 207.035156 205.164062 C 207.035156 205.164062 208.289062 206.109375 208.976562 206.953125 Z M 208.976562 206.953125 " fill-opacity="1" fill-rule="nonzero"/><path fill="#006064" d="M 191.109375 205.164062 C 184.539062 198.976562 178.152344 192.789062 178.152344 192.789062 L 189.222656 206.925781 C 189.21875 206.929688 189.988281 206.007812 191.109375 205.164062 Z M 191.109375 205.164062 " fill-opacity="1" fill-rule="nonzero"/></svg>